<svg width="25" height="25" viewBox="0 0 25 25" fill="none" xmlns="http://www.w3.org/2000/svg">
<path d="M13 15L17 11H9L13 15ZM13 22C11.6167 22 10.3167 21.7375 9.1 21.2125C7.88333 20.6875 6.825 19.975 5.925 19.075C5.025 18.175 4.3125 17.1167 3.7875 15.9C3.2625 14.6833 3 13.3833 3 12C3 10.6167 3.2625 9.31667 3.7875 8.1C4.3125 6.88333 5.025 5.825 5.925 4.925C6.825 4.025 7.88333 3.3125 9.1 2.7875C10.3167 2.2625 11.6167 2 13 2C14.3833 2 15.6833 2.2625 16.9 2.7875C18.1167 3.3125 19.175 4.025 20.075 4.925C20.975 5.825 21.6875 6.88333 22.2125 8.1C22.7375 9.31667 23 10.6167 23 12C23 13.3833 22.7375 14.6833 22.2125 15.9C21.6875 17.1167 20.975 18.175 20.075 19.075C19.175 19.975 18.1167 20.6875 16.9 21.2125C15.6833 21.7375 14.3833 22 13 22ZM13 20C15.2333 20 17.125 19.225 18.675 17.675C20.225 16.125 21 14.2333 21 12C21 9.76667 20.225 7.875 18.675 6.325C17.125 4.775 15.2333 4 13 4C10.7667 4 8.875 4.775 7.325 6.325C5.775 7.875 5 9.76667 5 12C5 14.2333 5.775 16.125 7.325 17.675C8.875 19.225 10.7667 20 13 20Z" fill="#1C1B1F"/>
</svg>
