<svg version="1.1" viewBox="0.0 0.0 600.0 371.0" fill="none" stroke="none" stroke-linecap="square" stroke-miterlimit="10" width="600" height="371" xmlns:xlink="http://www.w3.org/1999/xlink" xmlns="http://www.w3.org/2000/svg"><path fill="#fff8f0" d="M0 0L600.0 0L600.0 371.0L0 371.0L0 0Z" fill-rule="nonzero"/><path stroke="#000000" stroke-width="1.0" stroke-linecap="butt" stroke-opacity="0.0" d="M55.5 52.5L55.5 343.5" fill-rule="nonzero"/><path stroke="#000000" stroke-width="1.0" stroke-linecap="butt" stroke-opacity="0.0" d="M84.5 52.5L84.5 343.5" fill-rule="nonzero"/><path stroke="#000000" stroke-width="1.0" stroke-linecap="butt" stroke-opacity="0.0" d="M143.5 52.5L143.5 343.5" fill-rule="nonzero"/><path stroke="#000000" stroke-width="1.0" stroke-linecap="butt" stroke-opacity="0.0" d="M172.5 52.5L172.5 343.5" fill-rule="nonzero"/><path stroke="#000000" stroke-width="1.0" stroke-linecap="butt" stroke-opacity="0.0" d="M231.5 52.5L231.5 343.5" fill-rule="nonzero"/><path stroke="#000000" stroke-width="1.0" stroke-linecap="butt" stroke-opacity="0.0" d="M261.5 52.5L261.5 343.5" fill-rule="nonzero"/><path stroke="#000000" stroke-width="1.0" stroke-linecap="butt" stroke-opacity="0.0" d="M320.5 52.5L320.5 343.5" fill-rule="nonzero"/><path stroke="#000000" stroke-width="1.0" stroke-linecap="butt" stroke-opacity="0.0" d="M349.5 52.5L349.5 343.5" fill-rule="nonzero"/><path stroke="#000000" stroke-width="1.0" stroke-linecap="butt" stroke-opacity="0.0" d="M408.5 52.5L408.5 343.5" fill-rule="nonzero"/><path stroke="#000000" stroke-width="1.0" stroke-linecap="butt" stroke-opacity="0.0" d="M437.5 52.5L437.5 343.5" fill-rule="nonzero"/><path stroke="#000000" stroke-width="1.0" stroke-linecap="butt" stroke-opacity="0.0" d="M496.5 52.5L496.5 343.5" fill-rule="nonzero"/><path stroke="#000000" stroke-width="1.0" stroke-linecap="butt" stroke-opacity="0.0" d="M526.5 52.5L526.5 343.5" fill-rule="nonzero"/><path stroke="#000000" stroke-width="1.0" stroke-linecap="butt" stroke-opacity="0.0" d="M585.5 52.5L585.5 343.5" fill-rule="nonzero"/><path stroke="#2e2d2c" stroke-width="1.0" stroke-linecap="butt" d="M25.5 343.5L600.5 343.5" fill-rule="nonzero"/><path stroke="#cbc5bf" stroke-width="1.0" stroke-linecap="butt" d="M25.5 246.5L600.5 246.5" fill-rule="nonzero"/><path stroke="#cbc5bf" stroke-width="1.0" stroke-linecap="butt" d="M25.5 149.5L600.5 149.5" fill-rule="nonzero"/><path stroke="#cbc5bf" stroke-width="1.0" stroke-linecap="butt" d="M25.5 52.5L600.5 52.5" fill-rule="nonzero"/><clipPath id="id_0"><path d="M25.59461 52.5L600.0 52.5L600.0 343.1399L25.59461 343.1399L25.59461 52.5Z" clip-rule="nonzero"/></clipPath><path fill="#8a716a" fill-opacity="0.5019608" clip-path="url(#id_0)" d="M25.59461 339.2647C25.59461 339.2647 55.051296 336.3583 69.77964 335.3895C84.50798 334.42072 99.23633 335.0666 113.96467 333.4519C128.69301 331.83725 143.42136 328.6079 158.1497 325.7015C172.87804 322.7951 187.60638 319.8887 202.33473 316.01352C217.06308 312.1383 231.79141 307.85944 246.51976 302.45032C261.2481 297.0412 379.07486 249.24707 423.2599 226.88394C467.44492 204.52081 541.0866 163.37375 555.81494 149.37997C570.54333 135.3862 600.0 91.25198 600.0 91.25198L600.0 343.1399C600.0 343.1399 570.54333 343.1399 555.81494 343.1399C541.0866 343.1399 526.3583 343.1399 511.62994 343.1399C496.9016 343.1399 482.17325 343.1399 467.44492 343.1399C452.71655 343.1399 437.98822 343.1399 423.2599 343.1399C408.53152 343.1399 393.8032 343.1399 379.07486 343.1399C364.3465 343.1399 349.61816 343.1399 334.88983 343.1399C320.16147 343.1399 305.43314 343.1399 290.7048 343.1399C275.97644 343.1399 261.2481 343.1399 246.51976 343.1399C231.79141 343.1399 217.06308 343.1399 202.33473 343.1399C187.60638 343.1399 172.87804 343.1399 158.1497 343.1399C143.42136 343.1399 128.69301 343.1399 113.96467 343.1399C99.23633 343.1399 84.50798 343.1399 69.77964 343.1399C55.051296 343.1399 25.59461 343.1399 25.59461 343.1399Z" fill-rule="nonzero"/><path stroke="#8a716a" stroke-width="4.0" stroke-linecap="butt" clip-path="url(#id_0)" d="M25.59461 339.2647C25.59461 339.2647 55.051296 336.3583 69.77964 335.3895C84.50798 334.42072 99.23633 335.0666 113.96467 333.4519C128.69301 331.83725 143.42136 328.6079 158.1497 325.7015C172.87804 322.7951 187.60638 319.8887 202.33473 316.01352C217.06308 312.1383 231.79141 307.85944 246.51976 302.45032C261.2481 297.0412 379.07486 249.24707 423.2599 226.88394C467.44492 204.52081 541.0866 163.37375 555.81494 149.37997C570.54333 135.3862 600.0 91.25198 600.0 91.25198" fill-rule="nonzero"/><path fill="#000000" fill-opacity="0.0" clip-path="url(#id_0)" d="M28.59461 339.2647C28.59461 340.92157 27.251465 342.2647 25.59461 342.2647C23.937757 342.2647 22.59461 340.92157 22.59461 339.2647C22.59461 337.60785 23.937757 336.2647 25.59461 336.2647C27.251465 336.2647 28.59461 337.60785 28.59461 339.2647Z" fill-rule="nonzero"/><path fill="#000000" fill-opacity="0.0" clip-path="url(#id_0)" d="M72.77964 335.3895C72.77964 337.04636 71.43649 338.3895 69.77964 338.3895C68.12279 338.3895 66.77964 337.04636 66.77964 335.3895C66.77964 333.73267 68.12279 332.3895 69.77964 332.3895C71.43649 332.3895 72.77964 333.73267 72.77964 335.3895Z" fill-rule="nonzero"/><path fill="#000000" fill-opacity="0.0" clip-path="url(#id_0)" d="M116.96467 333.4519C116.96467 335.10876 115.62153 336.4519 113.96467 336.4519C112.307816 336.4519 110.96467 335.10876 110.96467 333.4519C110.96467 331.79504 112.307816 330.4519 113.96467 330.4519C115.62153 330.4519 116.96467 331.79504 116.96467 333.4519Z" fill-rule="nonzero"/><path fill="#000000" fill-opacity="0.0" clip-path="url(#id_0)" d="M161.1497 325.7015C161.1497 327.35837 159.80655 328.7015 158.1497 328.7015C156.49284 328.7015 155.1497 327.35837 155.1497 325.7015C155.1497 324.04465 156.49284 322.7015 158.1497 322.7015C159.80655 322.7015 161.1497 324.04465 161.1497 325.7015Z" fill-rule="nonzero"/><path fill="#000000" fill-opacity="0.0" clip-path="url(#id_0)" d="M205.33473 316.01352C205.33473 317.67038 203.9916 319.01352 202.33473 319.01352C200.67787 319.01352 199.33473 317.67038 199.33473 316.01352C199.33473 314.35666 200.67787 313.01352 202.33473 313.01352C203.9916 313.01352 205.33473 314.35666 205.33473 316.01352Z" fill-rule="nonzero"/><path fill="#000000" fill-opacity="0.0" clip-path="url(#id_0)" d="M249.51976 302.45032C249.51976 304.10718 248.17662 305.45032 246.51976 305.45032C244.8629 305.45032 243.51976 304.10718 243.51976 302.45032C243.51976 300.79346 244.8629 299.45032 246.51976 299.45032C248.17662 299.45032 249.51976 300.79346 249.51976 302.45032Z" fill-rule="nonzero"/><path fill="#000000" fill-opacity="0.0" clip-path="url(#id_0)" d="M426.2599 226.88394C426.2599 228.5408 424.91675 229.88394 423.2599 229.88394C421.60303 229.88394 420.2599 228.5408 420.2599 226.88394C420.2599 225.2271 421.60303 223.88394 423.2599 223.88394C424.91675 223.88394 426.2599 225.2271 426.2599 226.88394Z" fill-rule="nonzero"/><path fill="#000000" fill-opacity="0.0" clip-path="url(#id_0)" d="M558.81494 149.37997C558.81494 151.03682 557.4718 152.37997 555.81494 152.37997C554.15814 152.37997 552.81494 151.03682 552.81494 149.37997C552.81494 147.72311 554.15814 146.37997 555.81494 146.37997C557.4718 146.37997 558.81494 147.72311 558.81494 149.37997Z" fill-rule="nonzero"/><path fill="#000000" fill-opacity="0.0" clip-path="url(#id_0)" d="M603.0 91.25198C603.0 92.908844 601.65686 94.25198 600.0 94.25198C598.34314 94.25198 597.0 92.908844 597.0 91.25198C597.0 89.59513 598.34314 88.25198 600.0 88.25198C601.65686 88.25198 603.0 89.59513 603.0 91.25198Z" fill-rule="nonzero"/><path fill="#000000" d="M18.657112 343.99927Q18.657112 345.90552 18.000862 346.84302Q17.360237 347.7649 15.969611 347.7649Q14.610236 347.7649 13.953986 346.85864Q13.297736 345.9524 13.266486 344.1399L13.266486 342.7024Q13.266486 340.81177 13.907111 339.90552Q14.563361 338.98364 15.953986 338.98364Q17.328987 338.98364 17.985237 339.87427Q18.641487 340.74927 18.657112 342.59302L18.657112 343.99927ZM17.563362 342.5149Q17.563362 341.1399 17.172737 340.5149Q16.797737 339.87427 15.953986 339.87427Q15.125861 339.87427 14.735236 340.5149Q14.360236 341.1399 14.360236 342.43677L14.360236 344.17114Q14.360236 345.54614 14.750861 346.21802Q15.157111 346.87427 15.969611 346.87427Q16.766487 346.87427 17.157112 346.24927Q17.547737 345.62427 17.563362 344.29614L17.563362 342.5149Z" fill-rule="nonzero"/><path fill="#000000" d="M13.797736 246.47868L14.235236 242.22868L18.610237 242.22868L18.610237 243.22868L15.157111 243.22868L14.891486 245.55681Q15.532111 245.18181 16.328987 245.18181Q17.485237 245.18181 18.172737 245.96306Q18.860237 246.72868 18.860237 248.04118Q18.860237 249.35368 18.141487 250.11931Q17.438362 250.88493 16.157112 250.88493Q15.032111 250.88493 14.313361 250.25993Q13.594611 249.61931 13.500861 248.50993L14.516486 248.50993Q14.625861 249.24431 15.047736 249.61931Q15.469611 249.99431 16.157112 249.99431Q16.907112 249.99431 17.344612 249.47868Q17.782112 248.96306 17.782112 248.05681Q17.782112 247.19743 17.313362 246.68181Q16.844612 246.16618 16.063362 246.16618Q15.360236 246.16618 14.953986 246.46306L14.672736 246.69743L13.797736 246.47868Z" fill-rule="nonzero"/><path fill="#000000" d="M9.860235 153.87997L8.78211 153.87997L8.78211 146.66122L6.5946107 147.4581L6.5946107 146.47372L9.703985 145.30185L9.860235 145.30185L9.860235 153.87997ZM18.65711 150.23935Q18.65711 152.1456 18.00086 153.0831Q17.360235 154.00497 15.96961 154.00497Q14.610235 154.00497 13.953985 153.09872Q13.297735 152.19247 13.266485 150.37997L13.266485 148.94247Q13.266485 147.05185 13.90711 146.1456Q14.56336 145.22372 15.953985 145.22372Q17.328985 145.22372 17.985235 146.11435Q18.641485 146.98935 18.65711 148.8331L18.65711 150.23935ZM17.56336 148.75497Q17.56336 147.37997 17.172735 146.75497Q16.797735 146.11435 15.953985 146.11435Q15.12586 146.11435 14.735235 146.75497Q14.360235 147.37997 14.360235 148.67685L14.360235 150.41122Q14.360235 151.78622 14.75086 152.4581Q15.15711 153.11435 15.96961 153.11435Q16.766485 153.11435 17.15711 152.48935Q17.547735 151.86435 17.56336 150.53622L17.56336 148.75497Z" fill-rule="nonzero"/><path fill="#000000" d="M9.860235 57.0L8.78211 57.0L8.78211 49.78125L6.5946107 50.578125L6.5946107 49.59375L9.703985 48.421875L9.860235 48.421875L9.860235 57.0ZM13.797735 52.71875L14.235235 48.46875L18.610235 48.46875L18.610235 49.46875L15.15711 49.46875L14.891485 51.796875Q15.53211 51.421875 16.328985 51.421875Q17.485235 51.421875 18.172735 52.203125Q18.860235 52.96875 18.860235 54.28125Q18.860235 55.59375 18.141485 56.359375Q17.43836 57.125 16.15711 57.125Q15.03211 57.125 14.31336 56.5Q13.59461 55.859375 13.50086 54.75L14.516485 54.75Q14.62586 55.484375 15.047735 55.859375Q15.46961 56.234375 16.15711 56.234375Q16.90711 56.234375 17.34461 55.71875Q17.78211 55.203125 17.78211 54.296875Q17.78211 53.4375 17.31336 52.921875Q16.84461 52.40625 16.06336 52.40625Q15.360235 52.40625 14.953985 52.703125L14.672735 52.9375L13.797735 52.71875Z" fill-rule="nonzero"/><path fill="#000000" d="M17.891487 361.1399L12.297736 361.1399L12.297736 360.35864L15.250861 357.0774Q15.907111 356.3274 16.157112 355.87427Q16.407112 355.40552 16.407112 354.90552Q16.407112 354.23364 16.000862 353.81177Q15.610236 353.37427 14.922736 353.37427Q14.125861 353.37427 13.672736 353.84302Q13.219611 354.29614 13.219611 355.12427L12.141486 355.12427Q12.141486 353.93677 12.891486 353.21802Q13.657111 352.48364 14.922736 352.48364Q16.125862 352.48364 16.813362 353.10864Q17.500862 353.73364 17.500862 354.78052Q17.500862 356.03052 15.891486 357.78052L13.610236 360.24927L17.891487 360.24927L17.891487 361.1399ZM24.657112 357.49927Q24.657112 359.40552 24.000862 360.34302Q23.360237 361.2649 21.969612 361.2649Q20.610237 361.2649 19.953987 360.35864Q19.297737 359.4524 19.266487 357.6399L19.266487 356.2024Q19.266487 354.31177 19.907112 353.40552Q20.563362 352.48364 21.953987 352.48364Q23.328987 352.48364 23.985237 353.37427Q24.641487 354.24927 24.657112 356.09302L24.657112 357.49927ZM23.563362 356.0149Q23.563362 354.6399 23.172737 354.0149Q22.797737 353.37427 21.953987 353.37427Q21.125862 353.37427 20.735237 354.0149Q20.360237 354.6399 20.360237 355.93677L20.360237 357.67114Q20.360237 359.04614 20.750862 359.71802Q21.157112 360.37427 21.969612 360.37427Q22.766487 360.37427 23.157112 359.74927Q23.547737 359.12427 23.563362 357.79614L23.563362 356.0149ZM31.657112 357.49927Q31.657112 359.40552 31.000862 360.34302Q30.360237 361.2649 28.969612 361.2649Q27.610237 361.2649 26.953987 360.35864Q26.297737 359.4524 26.266487 357.6399L26.266487 356.2024Q26.266487 354.31177 26.907112 353.40552Q27.563362 352.48364 28.953987 352.48364Q30.328987 352.48364 30.985237 353.37427Q31.641487 354.24927 31.657112 356.09302L31.657112 357.49927ZM30.563362 356.0149Q30.563362 354.6399 30.172737 354.0149Q29.797737 353.37427 28.953987 353.37427Q28.125862 353.37427 27.735237 354.0149Q27.360237 354.6399 27.360237 355.93677L27.360237 357.67114Q27.360237 359.04614 27.750862 359.71802Q28.157112 360.37427 28.969612 360.37427Q29.766487 360.37427 30.157112 359.74927Q30.547737 359.12427 30.563362 357.79614L30.563362 356.0149ZM38.891487 361.1399L33.297737 361.1399L33.297737 360.35864L36.250862 357.0774Q36.907112 356.3274 37.157112 355.87427Q37.407112 355.40552 37.407112 354.90552Q37.407112 354.23364 37.000862 353.81177Q36.610237 353.37427 35.922737 353.37427Q35.125862 353.37427 34.672737 353.84302Q34.219612 354.29614 34.219612 355.12427L33.141487 355.12427Q33.141487 353.93677 33.891487 353.21802Q34.657112 352.48364 35.922737 352.48364Q37.125862 352.48364 37.813362 353.10864Q38.500862 353.73364 38.500862 354.78052Q38.500862 356.03052 36.891487 357.78052L34.610237 360.24927L38.891487 360.24927L38.891487 361.1399Z" fill-rule="nonzero"/><path fill="#000000" d="M106.26154 361.1399L100.66779 361.1399L100.66779 360.35864L103.62092 357.0774Q104.27717 356.3274 104.52717 355.87427Q104.77717 355.40552 104.77717 354.90552Q104.77717 354.23364 104.37092 353.81177Q103.98029 353.37427 103.29279 353.37427Q102.49592 353.37427 102.04279 353.84302Q101.58967 354.29614 101.58967 355.12427L100.51154 355.12427Q100.51154 353.93677 101.26154 353.21802Q102.02717 352.48364 103.29279 352.48364Q104.49592 352.48364 105.18342 353.10864Q105.87092 353.73364 105.87092 354.78052Q105.87092 356.03052 104.26154 357.78052L101.98029 360.24927L106.26154 360.24927L106.26154 361.1399ZM113.02717 357.49927Q113.02717 359.40552 112.37092 360.34302Q111.73029 361.2649 110.33967 361.2649Q108.98029 361.2649 108.32404 360.35864Q107.66779 359.4524 107.63654 357.6399L107.63654 356.2024Q107.63654 354.31177 108.27717 353.40552Q108.93342 352.48364 110.32404 352.48364Q111.69904 352.48364 112.35529 353.37427Q113.01154 354.24927 113.02717 356.09302L113.02717 357.49927ZM111.93342 356.0149Q111.93342 354.6399 111.54279 354.0149Q111.16779 353.37427 110.32404 353.37427Q109.49592 353.37427 109.10529 354.0149Q108.73029 354.6399 108.73029 355.93677L108.73029 357.67114Q108.73029 359.04614 109.12092 359.71802Q109.52717 360.37427 110.33967 360.37427Q111.13654 360.37427 111.52717 359.74927Q111.91779 359.12427 111.93342 357.79614L111.93342 356.0149ZM120.02717 357.49927Q120.02717 359.40552 119.37092 360.34302Q118.73029 361.2649 117.33967 361.2649Q115.98029 361.2649 115.32404 360.35864Q114.66779 359.4524 114.63654 357.6399L114.63654 356.2024Q114.63654 354.31177 115.27717 353.40552Q115.93342 352.48364 117.32404 352.48364Q118.69904 352.48364 119.35529 353.37427Q120.01154 354.24927 120.02717 356.09302L120.02717 357.49927ZM118.93342 356.0149Q118.93342 354.6399 118.54279 354.0149Q118.16779 353.37427 117.32404 353.37427Q116.49592 353.37427 116.10529 354.0149Q115.73029 354.6399 115.73029 355.93677L115.73029 357.67114Q115.73029 359.04614 116.12092 359.71802Q116.52717 360.37427 117.33967 360.37427Q118.13654 360.37427 118.52717 359.74927Q118.91779 359.12427 118.93342 357.79614L118.93342 356.0149ZM126.24592 358.28052L127.43342 358.28052L127.43342 359.15552L126.24592 359.15552L126.24592 361.1399L125.16779 361.1399L125.16779 359.15552L121.27717 359.15552L121.27717 358.5149L125.08967 352.60864L126.24592 352.60864L126.24592 358.28052ZM122.51154 358.28052L125.16779 358.28052L125.16779 354.09302L125.02717 354.3274L122.51154 358.28052Z" fill-rule="nonzero"/><path fill="#000000" d="M194.6316 361.1399L189.03786 361.1399L189.03786 360.35864L191.99098 357.0774Q192.64723 356.3274 192.89723 355.87427Q193.14723 355.40552 193.14723 354.90552Q193.14723 354.23364 192.74098 353.81177Q192.35036 353.37427 191.66286 353.37427Q190.86598 353.37427 190.41286 353.84302Q189.95973 354.29614 189.95973 355.12427L188.8816 355.12427Q188.8816 353.93677 189.6316 353.21802Q190.39723 352.48364 191.66286 352.48364Q192.86598 352.48364 193.55348 353.10864Q194.24098 353.73364 194.24098 354.78052Q194.24098 356.03052 192.6316 357.78052L190.35036 360.24927L194.6316 360.24927L194.6316 361.1399ZM201.39723 357.49927Q201.39723 359.40552 200.74098 360.34302Q200.10036 361.2649 198.70973 361.2649Q197.35036 361.2649 196.6941 360.35864Q196.03786 359.4524 196.0066 357.6399L196.0066 356.2024Q196.0066 354.31177 196.64723 353.40552Q197.30348 352.48364 198.6941 352.48364Q200.0691 352.48364 200.72536 353.37427Q201.3816 354.24927 201.39723 356.09302L201.39723 357.49927ZM200.30348 356.0149Q200.30348 354.6399 199.91286 354.0149Q199.53786 353.37427 198.6941 353.37427Q197.86598 353.37427 197.47536 354.0149Q197.10036 354.6399 197.10036 355.93677L197.10036 357.67114Q197.10036 359.04614 197.49098 359.71802Q197.89723 360.37427 198.70973 360.37427Q199.5066 360.37427 199.89723 359.74927Q200.28786 359.12427 200.30348 357.79614L200.30348 356.0149ZM208.39723 357.49927Q208.39723 359.40552 207.74098 360.34302Q207.10036 361.2649 205.70973 361.2649Q204.35036 361.2649 203.6941 360.35864Q203.03786 359.4524 203.0066 357.6399L203.0066 356.2024Q203.0066 354.31177 203.64723 353.40552Q204.30348 352.48364 205.6941 352.48364Q207.0691 352.48364 207.72536 353.37427Q208.3816 354.24927 208.39723 356.09302L208.39723 357.49927ZM207.30348 356.0149Q207.30348 354.6399 206.91286 354.0149Q206.53786 353.37427 205.6941 353.37427Q204.86598 353.37427 204.47536 354.0149Q204.10036 354.6399 204.10036 355.93677L204.10036 357.67114Q204.10036 359.04614 204.49098 359.71802Q204.89723 360.37427 205.70973 360.37427Q206.5066 360.37427 206.89723 359.74927Q207.28786 359.12427 207.30348 357.79614L207.30348 356.0149ZM214.30348 352.60864L214.30348 353.5149L214.10036 353.5149Q212.83473 353.54614 212.08473 354.28052Q211.33473 354.99927 211.20973 356.31177Q211.89723 355.54614 213.05348 355.54614Q214.16286 355.54614 214.83473 356.3274Q215.5066 357.10864 215.5066 358.35864Q215.5066 359.67114 214.78786 360.46802Q214.0691 361.2649 212.85036 361.2649Q211.6316 361.2649 210.86598 360.3274Q210.11598 359.37427 210.11598 357.8899L210.11598 357.48364Q210.11598 355.12427 211.11598 353.87427Q212.11598 352.62427 214.10036 352.60864L214.30348 352.60864ZM212.8816 356.4524Q212.3191 356.4524 211.85036 356.78052Q211.3816 357.10864 211.1941 357.62427L211.1941 358.0149Q211.1941 359.0774 211.66286 359.71802Q212.14723 360.35864 212.85036 360.35864Q213.58473 360.35864 214.0066 359.8274Q214.42848 359.28052 214.42848 358.40552Q214.42848 357.53052 214.0066 356.99927Q213.58473 356.4524 212.8816 356.4524Z" fill-rule="nonzero"/><path fill="#000000" d="M283.00168 361.1399L277.40793 361.1399L277.40793 360.35864L280.36105 357.0774Q281.0173 356.3274 281.2673 355.87427Q281.5173 355.40552 281.5173 354.90552Q281.5173 354.23364 281.11105 353.81177Q280.72043 353.37427 280.03293 353.37427Q279.23605 353.37427 278.78293 353.84302Q278.3298 354.29614 278.3298 355.12427L277.25168 355.12427Q277.25168 353.93677 278.00168 353.21802Q278.7673 352.48364 280.03293 352.48364Q281.23605 352.48364 281.92355 353.10864Q282.61105 353.73364 282.61105 354.78052Q282.61105 356.03052 281.00168 357.78052L278.72043 360.24927L283.00168 360.24927L283.00168 361.1399ZM289.7673 357.49927Q289.7673 359.40552 289.11105 360.34302Q288.47043 361.2649 287.0798 361.2649Q285.72043 361.2649 285.06418 360.35864Q284.40793 359.4524 284.37668 357.6399L284.37668 356.2024Q284.37668 354.31177 285.0173 353.40552Q285.67355 352.48364 287.06418 352.48364Q288.43918 352.48364 289.09543 353.37427Q289.75168 354.24927 289.7673 356.09302L289.7673 357.49927ZM288.67355 356.0149Q288.67355 354.6399 288.28293 354.0149Q287.90793 353.37427 287.06418 353.37427Q286.23605 353.37427 285.84543 354.0149Q285.47043 354.6399 285.47043 355.93677L285.47043 357.67114Q285.47043 359.04614 285.86105 359.71802Q286.2673 360.37427 287.0798 360.37427Q287.87668 360.37427 288.2673 359.74927Q288.65793 359.12427 288.67355 357.79614L288.67355 356.0149ZM296.7673 357.49927Q296.7673 359.40552 296.11105 360.34302Q295.47043 361.2649 294.0798 361.2649Q292.72043 361.2649 292.06418 360.35864Q291.40793 359.4524 291.37668 357.6399L291.37668 356.2024Q291.37668 354.31177 292.0173 353.40552Q292.67355 352.48364 294.06418 352.48364Q295.43918 352.48364 296.09543 353.37427Q296.75168 354.24927 296.7673 356.09302L296.7673 357.49927ZM295.67355 356.0149Q295.67355 354.6399 295.28293 354.0149Q294.90793 353.37427 294.06418 353.37427Q293.23605 353.37427 292.84543 354.0149Q292.47043 354.6399 292.47043 355.93677L292.47043 357.67114Q292.47043 359.04614 292.86105 359.71802Q293.2673 360.37427 294.0798 360.37427Q294.87668 360.37427 295.2673 359.74927Q295.65793 359.12427 295.67355 357.79614L295.67355 356.0149ZM303.59543 354.8274Q303.59543 355.46802 303.25168 355.96802Q302.90793 356.46802 302.34543 356.74927Q303.00168 357.03052 303.3923 357.59302Q303.78293 358.1399 303.78293 358.84302Q303.78293 359.93677 303.03293 360.60864Q302.29855 361.2649 301.0798 361.2649Q299.84543 361.2649 299.09543 360.60864Q298.36105 359.93677 298.36105 358.84302Q298.36105 358.1399 298.73605 357.59302Q299.11105 357.03052 299.78293 356.74927Q299.22043 356.46802 298.8923 355.96802Q298.56418 355.46802 298.56418 354.8274Q298.56418 353.74927 299.25168 353.12427Q299.93918 352.48364 301.0798 352.48364Q302.2048 352.48364 302.8923 353.12427Q303.59543 353.74927 303.59543 354.8274ZM302.7048 358.81177Q302.7048 358.09302 302.25168 357.65552Q301.79855 357.2024 301.06418 357.2024Q300.3298 357.2024 299.87668 357.65552Q299.43918 358.09302 299.43918 358.8274Q299.43918 359.54614 299.87668 359.96802Q300.31418 360.37427 301.0798 360.37427Q301.8298 360.37427 302.2673 359.9524Q302.7048 359.53052 302.7048 358.81177ZM301.0798 353.37427Q300.43918 353.37427 300.03293 353.78052Q299.6423 354.17114 299.6423 354.85864Q299.6423 355.49927 300.03293 355.90552Q300.42355 356.31177 301.06418 356.31177Q301.72043 356.31177 302.11105 355.90552Q302.50168 355.49927 302.50168 354.85864Q302.50168 354.2024 302.09543 353.79614Q301.68918 353.37427 301.0798 353.37427Z" fill-rule="nonzero"/><path fill="#000000" d="M371.37173 361.1399L365.77798 361.1399L365.77798 360.35864L368.7311 357.0774Q369.38736 356.3274 369.63736 355.87427Q369.88736 355.40552 369.88736 354.90552Q369.88736 354.23364 369.4811 353.81177Q369.09048 353.37427 368.40298 353.37427Q367.6061 353.37427 367.15298 353.84302Q366.69986 354.29614 366.69986 355.12427L365.62173 355.12427Q365.62173 353.93677 366.37173 353.21802Q367.13736 352.48364 368.40298 352.48364Q369.6061 352.48364 370.2936 353.10864Q370.9811 353.73364 370.9811 354.78052Q370.9811 356.03052 369.37173 357.78052L367.09048 360.24927L371.37173 360.24927L371.37173 361.1399ZM378.13736 357.49927Q378.13736 359.40552 377.4811 360.34302Q376.84048 361.2649 375.44986 361.2649Q374.09048 361.2649 373.43423 360.35864Q372.77798 359.4524 372.74673 357.6399L372.74673 356.2024Q372.74673 354.31177 373.38736 353.40552Q374.0436 352.48364 375.43423 352.48364Q376.80923 352.48364 377.46548 353.37427Q378.12173 354.24927 378.13736 356.09302L378.13736 357.49927ZM377.0436 356.0149Q377.0436 354.6399 376.65298 354.0149Q376.27798 353.37427 375.43423 353.37427Q374.6061 353.37427 374.21548 354.0149Q373.84048 354.6399 373.84048 355.93677L373.84048 357.67114Q373.84048 359.04614 374.2311 359.71802Q374.63736 360.37427 375.44986 360.37427Q376.24673 360.37427 376.63736 359.74927Q377.02798 359.12427 377.0436 357.79614L377.0436 356.0149ZM383.34048 361.1399L382.26236 361.1399L382.26236 353.92114L380.07486 354.71802L380.07486 353.73364L383.18423 352.56177L383.34048 352.56177L383.34048 361.1399ZM392.13736 357.49927Q392.13736 359.40552 391.4811 360.34302Q390.84048 361.2649 389.44986 361.2649Q388.09048 361.2649 387.43423 360.35864Q386.77798 359.4524 386.74673 357.6399L386.74673 356.2024Q386.74673 354.31177 387.38736 353.40552Q388.0436 352.48364 389.43423 352.48364Q390.80923 352.48364 391.46548 353.37427Q392.12173 354.24927 392.13736 356.09302L392.13736 357.49927ZM391.0436 356.0149Q391.0436 354.6399 390.65298 354.0149Q390.27798 353.37427 389.43423 353.37427Q388.6061 353.37427 388.21548 354.0149Q387.84048 354.6399 387.84048 355.93677L387.84048 357.67114Q387.84048 359.04614 388.2311 359.71802Q388.63736 360.37427 389.44986 360.37427Q390.24673 360.37427 390.63736 359.74927Q391.02798 359.12427 391.0436 357.79614L391.0436 356.0149Z" fill-rule="nonzero"/><path fill="#000000" d="M459.7418 361.1399L454.14804 361.1399L454.14804 360.35864L457.10117 357.0774Q457.75742 356.3274 458.00742 355.87427Q458.25742 355.40552 458.25742 354.90552Q458.25742 354.23364 457.85117 353.81177Q457.46054 353.37427 456.77304 353.37427Q455.97617 353.37427 455.52304 353.84302Q455.06992 354.29614 455.06992 355.12427L453.9918 355.12427Q453.9918 353.93677 454.7418 353.21802Q455.50742 352.48364 456.77304 352.48364Q457.97617 352.48364 458.66367 353.10864Q459.35117 353.73364 459.35117 354.78052Q459.35117 356.03052 457.7418 357.78052L455.46054 360.24927L459.7418 360.24927L459.7418 361.1399ZM466.50742 357.49927Q466.50742 359.40552 465.85117 360.34302Q465.21054 361.2649 463.81992 361.2649Q462.46054 361.2649 461.8043 360.35864Q461.14804 359.4524 461.1168 357.6399L461.1168 356.2024Q461.1168 354.31177 461.75742 353.40552Q462.41367 352.48364 463.8043 352.48364Q465.1793 352.48364 465.83554 353.37427Q466.4918 354.24927 466.50742 356.09302L466.50742 357.49927ZM465.41367 356.0149Q465.41367 354.6399 465.02304 354.0149Q464.64804 353.37427 463.8043 353.37427Q462.97617 353.37427 462.58554 354.0149Q462.21054 354.6399 462.21054 355.93677L462.21054 357.67114Q462.21054 359.04614 462.60117 359.71802Q463.00742 360.37427 463.81992 360.37427Q464.6168 360.37427 465.00742 359.74927Q465.39804 359.12427 465.41367 357.79614L465.41367 356.0149ZM471.71054 361.1399L470.63242 361.1399L470.63242 353.92114L468.44492 354.71802L468.44492 353.73364L471.5543 352.56177L471.71054 352.56177L471.71054 361.1399ZM480.7418 361.1399L475.14804 361.1399L475.14804 360.35864L478.10117 357.0774Q478.75742 356.3274 479.00742 355.87427Q479.25742 355.40552 479.25742 354.90552Q479.25742 354.23364 478.85117 353.81177Q478.46054 353.37427 477.77304 353.37427Q476.97617 353.37427 476.52304 353.84302Q476.06992 354.29614 476.06992 355.12427L474.9918 355.12427Q474.9918 353.93677 475.7418 353.21802Q476.50742 352.48364 477.77304 352.48364Q478.97617 352.48364 479.66367 353.10864Q480.35117 353.73364 480.35117 354.78052Q480.35117 356.03052 478.7418 357.78052L476.46054 360.24927L480.7418 360.24927L480.7418 361.1399Z" fill-rule="nonzero"/><path fill="#000000" d="M548.1118 361.1399L542.51807 361.1399L542.51807 360.35864L545.4712 357.0774Q546.12744 356.3274 546.37744 355.87427Q546.62744 355.40552 546.62744 354.90552Q546.62744 354.23364 546.2212 353.81177Q545.83057 353.37427 545.14307 353.37427Q544.3462 353.37427 543.89307 353.84302Q543.43994 354.29614 543.43994 355.12427L542.3618 355.12427Q542.3618 353.93677 543.1118 353.21802Q543.87744 352.48364 545.14307 352.48364Q546.3462 352.48364 547.0337 353.10864Q547.7212 353.73364 547.7212 354.78052Q547.7212 356.03052 546.1118 357.78052L543.83057 360.24927L548.1118 360.24927L548.1118 361.1399ZM554.87744 357.49927Q554.87744 359.40552 554.2212 360.34302Q553.58057 361.2649 552.18994 361.2649Q550.83057 361.2649 550.1743 360.35864Q549.51807 359.4524 549.4868 357.6399L549.4868 356.2024Q549.4868 354.31177 550.12744 353.40552Q550.7837 352.48364 552.1743 352.48364Q553.5493 352.48364 554.20557 353.37427Q554.8618 354.24927 554.87744 356.09302L554.87744 357.49927ZM553.7837 356.0149Q553.7837 354.6399 553.39307 354.0149Q553.01807 353.37427 552.1743 353.37427Q551.3462 353.37427 550.95557 354.0149Q550.58057 354.6399 550.58057 355.93677L550.58057 357.67114Q550.58057 359.04614 550.9712 359.71802Q551.37744 360.37427 552.18994 360.37427Q552.9868 360.37427 553.37744 359.74927Q553.76807 359.12427 553.7837 357.79614L553.7837 356.0149ZM560.08057 361.1399L559.00244 361.1399L559.00244 353.92114L556.81494 354.71802L556.81494 353.73364L559.9243 352.56177L560.08057 352.56177L560.08057 361.1399ZM568.0962 358.28052L569.2837 358.28052L569.2837 359.15552L568.0962 359.15552L568.0962 361.1399L567.01807 361.1399L567.01807 359.15552L563.12744 359.15552L563.12744 358.5149L566.93994 352.60864L568.0962 352.60864L568.0962 358.28052ZM564.3618 358.28052L567.01807 358.28052L567.01807 354.09302L566.87744 354.3274L564.3618 358.28052Z" fill-rule="nonzero"/><path fill="#999999" d="M64.12172 46.201107Q64.12172 45.763607 63.777966 45.529232Q63.44984 45.279232 62.621716 45.107357Q61.809216 44.935482 61.32484 44.685482Q60.840466 44.435482 60.60609 44.107357Q60.38734 43.763607 60.38734 43.294857Q60.38734 42.513607 61.04359 41.982357Q61.69984 41.435482 62.73109 41.435482Q63.809216 41.435482 64.46547 41.997982Q65.137344 42.544857 65.137344 43.404232L64.05922 43.404232Q64.05922 42.966732 63.66859 42.654232Q63.29359 42.326107 62.73109 42.326107Q62.13734 42.326107 61.79359 42.591732Q61.465466 42.841732 61.465466 43.247982Q61.465466 43.638607 61.777966 43.841732Q62.090466 44.044857 62.902966 44.232357Q63.715466 44.404232 64.21547 44.654232Q64.71547 44.904232 64.949844 45.263607Q65.199844 45.622982 65.199844 46.122982Q65.199844 46.982357 64.512344 47.497982Q63.840466 48.013607 62.76234 48.013607Q61.996716 48.013607 61.402966 47.747982Q60.82484 47.466732 60.496716 46.982357Q60.16859 46.497982 60.16859 45.935482L61.246716 45.935482Q61.277966 46.482357 61.684216 46.810482Q62.090466 47.122982 62.76234 47.122982Q63.371716 47.122982 63.746716 46.872982Q64.12172 46.622982 64.12172 46.201107ZM66.137344 44.654232Q66.137344 43.732357 66.49672 42.982357Q66.87172 42.232357 67.52797 41.841732Q68.18422 41.435482 69.012344 41.435482Q70.30922 41.435482 71.106094 42.326107Q71.918594 43.216732 71.918594 44.716732L71.918594 44.794857Q71.918594 45.716732 71.55922 46.451107Q71.199844 47.185482 70.543594 47.607357Q69.887344 48.013607 69.02797 48.013607Q67.74672 48.013607 66.93422 47.122982Q66.137344 46.216732 66.137344 44.732357L66.137344 44.654232ZM67.231094 44.794857Q67.231094 45.841732 67.71547 46.482357Q68.21547 47.122982 69.02797 47.122982Q69.856094 47.122982 70.34047 46.482357Q70.824844 45.826107 70.824844 44.654232Q70.824844 43.622982 70.324844 42.982357Q69.84047 42.326107 69.012344 42.326107Q68.21547 42.326107 67.71547 42.966732Q67.231094 43.591732 67.231094 44.794857ZM77.34047 47.263607Q76.71547 48.013607 75.481094 48.013607Q74.46547 48.013607 73.93422 47.419857Q73.40297 46.826107 73.40297 45.669857L73.40297 41.544857L74.481094 41.544857L74.481094 45.638607Q74.481094 47.091732 75.65297 47.091732Q76.90297 47.091732 77.30922 46.154232L77.30922 41.544857L78.40297 41.544857L78.40297 47.888607L77.37172 47.888607L77.34047 47.263607ZM83.49672 42.513607Q83.24672 42.482357 82.96547 42.482357Q81.887344 42.482357 81.512344 43.388607L81.512344 47.888607L80.43422 47.888607L80.43422 41.544857L81.481094 41.544857L81.49672 42.279232Q82.02797 41.435482 83.012344 41.435482Q83.324844 41.435482 83.49672 41.513607L83.49672 42.513607ZM86.96547 47.122982Q87.543594 47.122982 87.981094 46.779232Q88.418594 46.419857 88.46547 45.888607L89.49672 45.888607Q89.46547 46.435482 89.106094 46.935482Q88.762344 47.419857 88.18422 47.716732Q87.62172 48.013607 86.96547 48.013607Q85.668594 48.013607 84.90297 47.154232Q84.15297 46.279232 84.15297 44.779232L84.15297 44.591732Q84.15297 43.669857 84.481094 42.951107Q84.824844 42.232357 85.449844 41.841732Q86.09047 41.435482 86.96547 41.435482Q88.02797 41.435482 88.731094 42.076107Q89.449844 42.701107 89.49672 43.732357L88.46547 43.732357Q88.418594 43.107357 87.99672 42.716732Q87.574844 42.326107 86.96547 42.326107Q86.137344 42.326107 85.68422 42.919857Q85.231094 43.513607 85.231094 44.638607L85.231094 44.841732Q85.231094 45.935482 85.68422 46.529232Q86.137344 47.122982 86.96547 47.122982ZM93.05922 48.013607Q91.762344 48.013607 90.949844 47.169857Q90.15297 46.310482 90.15297 44.888607L90.15297 44.701107Q90.15297 43.747982 90.512344 43.013607Q90.87172 42.263607 91.512344 41.857357Q92.168594 41.435482 92.918594 41.435482Q94.15297 41.435482 94.84047 42.247982Q95.52797 43.060482 95.52797 44.576107L95.52797 45.029232L91.231094 45.029232Q91.262344 45.966732 91.77797 46.544857Q92.30922 47.122982 93.12172 47.122982Q93.68422 47.122982 94.074844 46.888607Q94.481094 46.654232 94.793594 46.263607L95.449844 46.779232Q94.65297 48.013607 93.05922 48.013607ZM92.918594 42.326107Q92.262344 42.326107 91.80922 42.810482Q91.37172 43.279232 91.27797 44.138607L94.449844 44.138607L94.449844 44.060482Q94.40297 43.232357 93.99672 42.779232Q93.606094 42.326107 92.918594 42.326107ZM99.168594 44.669857Q99.168594 43.201107 99.856094 42.326107Q100.543594 41.435482 101.668594 41.435482Q102.77797 41.435482 103.43422 42.185482L103.43422 38.888607L104.512344 38.888607L104.512344 47.888607L103.512344 47.888607L103.46547 47.201107Q102.80922 48.013607 101.65297 48.013607Q100.55922 48.013607 99.856094 47.107357Q99.168594 46.201107 99.168594 44.747982L99.168594 44.669857ZM100.24672 44.794857Q100.24672 45.872982 100.68422 46.482357Q101.137344 47.091732 101.918594 47.091732Q102.949844 47.091732 103.43422 46.154232L103.43422 43.247982Q102.949844 42.357357 101.93422 42.357357Q101.137344 42.357357 100.68422 42.966732Q100.24672 43.576107 100.24672 44.794857ZM106.137344 44.654232Q106.137344 43.732357 106.49672 42.982357Q106.87172 42.232357 107.52797 41.841732Q108.18422 41.435482 109.012344 41.435482Q110.30922 41.435482 111.106094 42.326107Q111.918594 43.216732 111.918594 44.716732L111.918594 44.794857Q111.918594 45.716732 111.55922 46.451107Q111.199844 47.185482 110.543594 47.607357Q109.887344 48.013607 109.02797 48.013607Q107.74672 48.013607 106.93422 47.122982Q106.137344 46.216732 106.137344 44.732357L106.137344 44.654232ZM107.231094 44.794857Q107.231094 45.841732 107.71547 46.482357Q108.21547 47.122982 109.02797 47.122982Q109.856094 47.122982 110.34047 46.482357Q110.824844 45.826107 110.824844 44.654232Q110.824844 43.622982 110.324844 42.982357Q109.84047 42.326107 109.012344 42.326107Q108.21547 42.326107 107.71547 42.966732Q107.231094 43.591732 107.231094 44.794857ZM114.449844 41.544857L114.481094 42.341732Q115.21547 41.435482 116.387344 41.435482Q118.40297 41.435482 118.418594 43.701107L118.418594 47.888607L117.324844 47.888607L117.324844 43.685482Q117.324844 43.013607 117.012344 42.685482Q116.71547 42.357357 116.05922 42.357357Q115.52797 42.357357 115.12172 42.638607Q114.731094 42.919857 114.512344 43.372982L114.512344 47.888607L113.43422 47.888607L113.43422 41.544857L114.449844 41.544857ZM121.449844 41.544857L121.481094 42.341732Q122.21547 41.435482 123.387344 41.435482Q125.40297 41.435482 125.418594 43.701107L125.418594 47.888607L124.324844 47.888607L124.324844 43.685482Q124.324844 43.013607 124.012344 42.685482Q123.71547 42.357357 123.05922 42.357357Q122.52797 42.357357 122.12172 42.638607Q121.731094 42.919857 121.512344 43.372982L121.512344 47.888607L120.43422 47.888607L120.43422 41.544857L121.449844 41.544857ZM130.05922 48.013607Q128.76234 48.013607 127.949844 47.169857Q127.15297 46.310482 127.15297 44.888607L127.15297 44.701107Q127.15297 43.747982 127.512344 43.013607Q127.87172 42.263607 128.51234 41.857357Q129.1686 41.435482 129.9186 41.435482Q131.15297 41.435482 131.84047 42.247982Q132.52797 43.060482 132.52797 44.576107L132.52797 45.029232L128.2311 45.029232Q128.26234 45.966732 128.77797 46.544857Q129.30922 47.122982 130.12172 47.122982Q130.68422 47.122982 131.07484 46.888607Q131.4811 46.654232 131.7936 46.263607L132.44984 46.779232Q131.65297 48.013607 130.05922 48.013607ZM129.9186 42.326107Q129.26234 42.326107 128.80922 42.810482Q128.37172 43.279232 128.27797 44.138607L131.44984 44.138607L131.44984 44.060482Q131.40297 43.232357 130.99672 42.779232Q130.6061 42.326107 129.9186 42.326107ZM130.46547 38.888607L131.77797 38.888607L130.19984 40.607357L129.32484 40.607357L130.46547 38.888607ZM136.05922 48.013607Q134.76234 48.013607 133.94984 47.169857Q133.15297 46.310482 133.15297 44.888607L133.15297 44.701107Q133.15297 43.747982 133.51234 43.013607Q133.87172 42.263607 134.51234 41.857357Q135.1686 41.435482 135.9186 41.435482Q137.15297 41.435482 137.84047 42.247982Q138.52797 43.060482 138.52797 44.576107L138.52797 45.029232L134.2311 45.029232Q134.26234 45.966732 134.77797 46.544857Q135.30922 47.122982 136.12172 47.122982Q136.68422 47.122982 137.07484 46.888607Q137.4811 46.654232 137.7936 46.263607L138.44984 46.779232Q137.65297 48.013607 136.05922 48.013607ZM135.9186 42.326107Q135.26234 42.326107 134.80922 42.810482Q134.37172 43.279232 134.27797 44.138607L137.44984 44.138607L137.44984 44.060482Q137.40297 43.232357 136.99672 42.779232Q136.6061 42.326107 135.9186 42.326107ZM143.12172 46.201107Q143.12172 45.763607 142.77797 45.529232Q142.44984 45.279232 141.62172 45.107357Q140.80922 44.935482 140.32484 44.685482Q139.84047 44.435482 139.6061 44.107357Q139.38734 43.763607 139.38734 43.294857Q139.38734 42.513607 140.0436 41.982357Q140.69984 41.435482 141.7311 41.435482Q142.80922 41.435482 143.46547 41.997982Q144.13734 42.544857 144.13734 43.404232L143.05922 43.404232Q143.05922 42.966732 142.6686 42.654232Q142.2936 42.326107 141.7311 42.326107Q141.13734 42.326107 140.7936 42.591732Q140.46547 42.841732 140.46547 43.247982Q140.46547 43.638607 140.77797 43.841732Q141.09047 44.044857 141.90297 44.232357Q142.71547 44.404232 143.21547 44.654232Q143.71547 44.904232 143.94984 45.263607Q144.19984 45.622982 144.19984 46.122982Q144.19984 46.982357 143.51234 47.497982Q142.84047 48.013607 141.76234 48.013607Q140.99672 48.013607 140.40297 47.747982Q139.82484 47.466732 139.49672 46.982357Q139.1686 46.497982 139.1686 45.935482L140.24672 45.935482Q140.27797 46.482357 140.68422 46.810482Q141.09047 47.122982 141.76234 47.122982Q142.37172 47.122982 142.74672 46.872982Q143.12172 46.622982 143.12172 46.201107ZM145.38734 47.326107Q145.38734 47.044857 145.5436 46.857357Q145.71547 46.669857 146.0436 46.669857Q146.38734 46.669857 146.55922 46.857357Q146.7311 47.044857 146.7311 47.326107Q146.7311 47.591732 146.55922 47.779232Q146.38734 47.951107 146.0436 47.951107Q145.71547 47.951107 145.5436 47.779232Q145.38734 47.591732 145.38734 47.326107ZM145.40297 42.154232Q145.40297 41.872982 145.55922 41.685482Q145.7311 41.497982 146.05922 41.497982Q146.40297 41.497982 146.57484 41.685482Q146.74672 41.872982 146.74672 42.154232Q146.74672 42.419857 146.57484 42.607357Q146.40297 42.779232 146.05922 42.779232Q145.7311 42.779232 145.55922 42.607357Q145.40297 42.419857 145.40297 42.154232ZM154.7311 44.435482L152.71547 44.435482L152.71547 47.888607L151.59047 47.888607L151.59047 39.357357L154.4186 39.357357Q155.8561 39.357357 156.62172 40.013607Q157.40297 40.669857 157.40297 41.919857Q157.40297 42.716732 156.96547 43.310482Q156.5436 43.904232 155.77797 44.201107L157.77797 47.810482L157.77797 47.888607L156.57484 47.888607L154.7311 44.435482ZM152.71547 43.513607L154.44984 43.513607Q155.2936 43.513607 155.77797 43.091732Q156.27797 42.654232 156.27797 41.919857Q156.27797 41.138607 155.80922 40.716732Q155.34047 40.294857 154.44984 40.279232L152.71547 40.279232L152.71547 43.513607ZM162.34047 47.888607Q162.24672 47.701107 162.18422 47.216732Q161.43422 48.013607 160.38734 48.013607Q159.44984 48.013607 158.84047 47.482357Q158.24672 46.951107 158.24672 46.122982Q158.24672 45.138607 158.99672 44.591732Q159.74672 44.044857 161.12172 44.044857L162.1686 44.044857L162.1686 43.544857Q162.1686 42.982357 161.82484 42.654232Q161.49672 42.310482 160.82484 42.310482Q160.24672 42.310482 159.8561 42.607357Q159.46547 42.888607 159.46547 43.310482L158.37172 43.310482Q158.37172 42.826107 158.69984 42.388607Q159.0436 41.951107 159.62172 41.701107Q160.19984 41.435482 160.88734 41.435482Q161.99672 41.435482 162.6061 41.982357Q163.2311 42.529232 163.26234 43.482357L163.26234 46.404232Q163.26234 47.279232 163.4811 47.794857L163.4811 47.888607L162.34047 47.888607ZM160.5436 47.060482Q161.05922 47.060482 161.51234 46.794857Q161.96547 46.529232 162.1686 46.107357L162.1686 44.810482L161.32484 44.810482Q159.32484 44.810482 159.32484 45.982357Q159.32484 46.482357 159.6686 46.779232Q160.01234 47.060482 160.5436 47.060482ZM170.77797 44.794857Q170.77797 46.232357 170.12172 47.122982Q169.46547 48.013607 168.32484 48.013607Q167.1686 48.013607 166.51234 47.279232L166.51234 50.326107L165.43422 50.326107L165.43422 41.544857L166.4186 41.544857L166.46547 42.247982Q167.13734 41.435482 168.30922 41.435482Q169.44984 41.435482 170.1061 42.294857Q170.77797 43.154232 170.77797 44.685482L170.77797 44.794857ZM169.69984 44.669857Q169.69984 43.591732 169.2311 42.982357Q168.77797 42.357357 167.9811 42.357357Q166.99672 42.357357 166.51234 43.216732L166.51234 46.247982Q166.99672 47.122982 167.99672 47.122982Q168.77797 47.122982 169.2311 46.513607Q169.69984 45.888607 169.69984 44.669857ZM177.77797 44.794857Q177.77797 46.232357 177.12172 47.122982Q176.46547 48.013607 175.32484 48.013607Q174.1686 48.013607 173.51234 47.279232L173.51234 50.326107L172.43422 50.326107L172.43422 41.544857L173.4186 41.544857L173.46547 42.247982Q174.13734 41.435482 175.30922 41.435482Q176.44984 41.435482 177.1061 42.294857Q177.77797 43.154232 177.77797 44.685482L177.77797 44.794857ZM176.69984 44.669857Q176.69984 43.591732 176.2311 42.982357Q175.77797 42.357357 174.9811 42.357357Q173.99672 42.357357 173.51234 43.216732L173.51234 46.247982Q173.99672 47.122982 174.99672 47.122982Q175.77797 47.122982 176.2311 46.513607Q176.69984 45.888607 176.69984 44.669857ZM179.13734 44.654232Q179.13734 43.732357 179.49672 42.982357Q179.87172 42.232357 180.52797 41.841732Q181.18422 41.435482 182.01234 41.435482Q183.30922 41.435482 184.1061 42.326107Q184.9186 43.216732 184.9186 44.716732L184.9186 44.794857Q184.9186 45.716732 184.55922 46.451107Q184.19984 47.185482 183.5436 47.607357Q182.88734 48.013607 182.02797 48.013607Q180.74672 48.013607 179.93422 47.122982Q179.13734 46.216732 179.13734 44.732357L179.13734 44.654232ZM180.2311 44.794857Q180.2311 45.841732 180.71547 46.482357Q181.21547 47.122982 182.02797 47.122982Q182.8561 47.122982 183.34047 46.482357Q183.82484 45.826107 183.82484 44.654232Q183.82484 43.622982 183.32484 42.982357Q182.84047 42.326107 182.01234 42.326107Q181.21547 42.326107 180.71547 42.966732Q180.2311 43.591732 180.2311 44.794857ZM189.49672 42.513607Q189.24672 42.482357 188.96547 42.482357Q187.88734 42.482357 187.51234 43.388607L187.51234 47.888607L186.43422 47.888607L186.43422 41.544857L187.4811 41.544857L187.49672 42.279232Q188.02797 41.435482 189.01234 41.435482Q189.32484 41.435482 189.49672 41.513607L189.49672 42.513607ZM191.90297 40.013607L191.90297 41.544857L193.07484 41.544857L193.07484 42.388607L191.90297 42.388607L191.90297 46.310482Q191.90297 46.701107 192.05922 46.888607Q192.21547 47.076107 192.59047 47.076107Q192.77797 47.076107 193.1061 47.013607L193.1061 47.888607Q192.68422 48.013607 192.27797 48.013607Q191.55922 48.013607 191.18422 47.576107Q190.80922 47.122982 190.80922 46.310482L190.80922 42.388607L189.65297 42.388607L189.65297 41.544857L190.80922 41.544857L190.80922 40.013607L191.90297 40.013607ZM198.12172 46.201107Q198.12172 45.763607 197.77797 45.529232Q197.44984 45.279232 196.62172 45.107357Q195.80922 44.935482 195.32484 44.685482Q194.84047 44.435482 194.6061 44.107357Q194.38734 43.763607 194.38734 43.294857Q194.38734 42.513607 195.0436 41.982357Q195.69984 41.435482 196.7311 41.435482Q197.80922 41.435482 198.46547 41.997982Q199.13734 42.544857 199.13734 43.404232L198.05922 43.404232Q198.05922 42.966732 197.6686 42.654232Q197.2936 42.326107 196.7311 42.326107Q196.13734 42.326107 195.7936 42.591732Q195.46547 42.841732 195.46547 43.247982Q195.46547 43.638607 195.77797 43.841732Q196.09047 44.044857 196.90297 44.232357Q197.71547 44.404232 198.21547 44.654232Q198.71547 44.904232 198.94984 45.263607Q199.19984 45.622982 199.19984 46.122982Q199.19984 46.982357 198.51234 47.497982Q197.84047 48.013607 196.76234 48.013607Q195.99672 48.013607 195.40297 47.747982Q194.82484 47.466732 194.49672 46.982357Q194.1686 46.497982 194.1686 45.935482L195.24672 45.935482Q195.27797 46.482357 195.68422 46.810482Q196.09047 47.122982 196.76234 47.122982Q197.37172 47.122982 197.74672 46.872982Q198.12172 46.622982 198.12172 46.201107ZM204.71547 44.544857L204.71547 47.888607L203.59047 47.888607L203.59047 39.357357L206.74672 39.357357Q208.13734 39.357357 208.93422 40.076107Q209.7311 40.779232 209.7311 41.966732Q209.7311 43.201107 208.94984 43.872982Q208.18422 44.544857 206.7311 44.544857L204.71547 44.544857ZM204.71547 43.622982L206.74672 43.622982Q207.65297 43.622982 208.12172 43.201107Q208.6061 42.779232 208.6061 41.982357Q208.6061 41.216732 208.12172 40.763607Q207.65297 40.294857 206.80922 40.279232L204.71547 40.279232L204.71547 43.622982ZM212.6061 47.888607L211.52797 47.888607L211.52797 41.544857L212.6061 41.544857L212.6061 47.888607ZM211.43422 39.872982Q211.43422 39.607357 211.59047 39.419857Q211.76234 39.232357 212.07484 39.232357Q212.38734 39.232357 212.5436 39.419857Q212.71547 39.607357 212.71547 39.872982Q212.71547 40.122982 212.5436 40.310482Q212.38734 40.482357 212.07484 40.482357Q211.76234 40.482357 211.59047 40.310482Q211.43422 40.122982 211.43422 39.872982ZM217.05922 48.013607Q215.76234 48.013607 214.94984 47.169857Q214.15297 46.310482 214.15297 44.888607L214.15297 44.701107Q214.15297 43.747982 214.51234 43.013607Q214.87172 42.263607 215.51234 41.857357Q216.1686 41.435482 216.9186 41.435482Q218.15297 41.435482 218.84047 42.247982Q219.52797 43.060482 219.52797 44.576107L219.52797 45.029232L215.2311 45.029232Q215.26234 45.966732 215.77797 46.544857Q216.30922 47.122982 217.12172 47.122982Q217.68422 47.122982 218.07484 46.888607Q218.4811 46.654232 218.7936 46.263607L219.44984 46.779232Q218.65297 48.013607 217.05922 48.013607ZM216.9186 42.326107Q216.26234 42.326107 215.80922 42.810482Q215.37172 43.279232 215.27797 44.138607L218.44984 44.138607L218.44984 44.060482Q218.40297 43.232357 217.99672 42.779232Q217.6061 42.326107 216.9186 42.326107ZM223.49672 42.513607Q223.24672 42.482357 222.96547 42.482357Q221.88734 42.482357 221.51234 43.388607L221.51234 47.888607L220.43422 47.888607L220.43422 41.544857L221.4811 41.544857L221.49672 42.279232Q222.02797 41.435482 223.01234 41.435482Q223.32484 41.435482 223.49672 41.513607L223.49672 42.513607ZM227.49672 42.513607Q227.24672 42.482357 226.96547 42.482357Q225.88734 42.482357 225.51234 43.388607L225.51234 47.888607L224.43422 47.888607L224.43422 41.544857L225.4811 41.544857L225.49672 42.279232Q226.02797 41.435482 227.01234 41.435482Q227.32484 41.435482 227.49672 41.513607L227.49672 42.513607ZM231.05922 48.013607Q229.76234 48.013607 228.94984 47.169857Q228.15297 46.310482 228.15297 44.888607L228.15297 44.701107Q228.15297 43.747982 228.51234 43.013607Q228.87172 42.263607 229.51234 41.857357Q230.1686 41.435482 230.9186 41.435482Q232.15297 41.435482 232.84047 42.247982Q233.52797 43.060482 233.52797 44.576107L233.52797 45.029232L229.2311 45.029232Q229.26234 45.966732 229.77797 46.544857Q230.30922 47.122982 231.12172 47.122982Q231.68422 47.122982 232.07484 46.888607Q232.4811 46.654232 232.7936 46.263607L233.44984 46.779232Q232.65297 48.013607 231.05922 48.013607ZM230.9186 42.326107Q230.26234 42.326107 229.80922 42.810482Q229.37172 43.279232 229.27797 44.138607L232.44984 44.138607L232.44984 44.060482Q232.40297 43.232357 231.99672 42.779232Q231.6061 42.326107 230.9186 42.326107ZM242.30922 45.654232L238.7311 45.654232L237.93422 47.888607L236.77797 47.888607L240.02797 39.357357L241.01234 39.357357L244.27797 47.888607L243.12172 47.888607L242.30922 45.654232ZM239.07484 44.732357L241.9811 44.732357L240.52797 40.747982L239.07484 44.732357ZM249.34047 47.263607Q248.71547 48.013607 247.4811 48.013607Q246.46547 48.013607 245.93422 47.419857Q245.40297 46.826107 245.40297 45.669857L245.40297 41.544857L246.4811 41.544857L246.4811 45.638607Q246.4811 47.091732 247.65297 47.091732Q248.90297 47.091732 249.30922 46.154232L249.30922 41.544857L250.40297 41.544857L250.40297 47.888607L249.37172 47.888607L249.34047 47.263607ZM252.1686 44.669857Q252.1686 43.201107 252.8561 42.326107Q253.5436 41.435482 254.6686 41.435482Q255.77797 41.435482 256.4342 42.185482L256.4342 38.888607L257.51233 38.888607L257.51233 47.888607L256.51233 47.888607L256.46545 47.201107Q255.80922 48.013607 254.65297 48.013607Q253.55922 48.013607 252.8561 47.107357Q252.1686 46.201107 252.1686 44.747982L252.1686 44.669857ZM253.24672 44.794857Q253.24672 45.872982 253.68422 46.482357Q254.13734 47.091732 254.9186 47.091732Q255.94984 47.091732 256.4342 46.154232L256.4342 43.247982Q255.94984 42.357357 254.93422 42.357357Q254.13734 42.357357 253.68422 42.966732Q253.24672 43.576107 253.24672 44.794857ZM259.13733 44.654232Q259.13733 43.732357 259.4967 42.982357Q259.8717 42.232357 260.52795 41.841732Q261.1842 41.435482 262.01233 41.435482Q263.3092 41.435482 264.10608 42.326107Q264.91858 43.216732 264.91858 44.716732L264.91858 44.794857Q264.91858 45.716732 264.5592 46.451107Q264.19983 47.185482 263.54358 47.607357Q262.88733 48.013607 262.02795 48.013607Q260.7467 48.013607 259.9342 47.122982Q259.13733 46.216732 259.13733 44.732357L259.13733 44.654232ZM260.23108 44.794857Q260.23108 45.841732 260.71545 46.482357Q261.21545 47.122982 262.02795 47.122982Q262.85608 47.122982 263.34045 46.482357Q263.82483 45.826107 263.82483 44.654232Q263.82483 43.622982 263.32483 42.982357Q262.84045 42.326107 262.01233 42.326107Q261.21545 42.326107 260.71545 42.966732Q260.23108 43.591732 260.23108 44.794857ZM267.60608 47.888607L266.52795 47.888607L266.52795 41.544857L267.60608 41.544857L267.60608 47.888607ZM266.4342 39.872982Q266.4342 39.607357 266.59045 39.419857Q266.76233 39.232357 267.07483 39.232357Q267.38733 39.232357 267.54358 39.419857Q267.71545 39.607357 267.71545 39.872982Q267.71545 40.122982 267.54358 40.310482Q267.38733 40.482357 267.07483 40.482357Q266.76233 40.482357 266.59045 40.310482Q266.4342 40.122982 266.4342 39.872982ZM270.44983 41.544857L270.48108 42.341732Q271.21545 41.435482 272.38733 41.435482Q274.40295 41.435482 274.41858 43.701107L274.41858 47.888607L273.32483 47.888607L273.32483 43.685482Q273.32483 43.013607 273.01233 42.685482Q272.71545 42.357357 272.0592 42.357357Q271.52795 42.357357 271.1217 42.638607Q270.73108 42.919857 270.51233 43.372982L270.51233 47.888607L269.4342 47.888607L269.4342 41.544857L270.44983 41.544857ZM285.8717 45.185482Q285.71545 46.529232 284.8717 47.279232Q284.02795 48.013607 282.63733 48.013607Q281.1217 48.013607 280.21545 46.935482Q279.3092 45.841732 279.3092 44.013607L279.3092 43.201107Q279.3092 42.013607 279.73108 41.107357Q280.15295 40.201107 280.9342 39.716732Q281.71545 39.232357 282.73108 39.232357Q284.09045 39.232357 284.90295 39.997982Q285.73108 40.763607 285.8717 42.091732L284.7467 42.091732Q284.59045 41.076107 284.10608 40.622982Q283.6217 40.169857 282.73108 40.169857Q281.65295 40.169857 281.04358 40.966732Q280.4342 41.763607 280.4342 43.232357L280.4342 44.060482Q280.4342 45.451107 281.01233 46.279232Q281.59045 47.091732 282.63733 47.091732Q283.57483 47.091732 284.07483 46.669857Q284.57483 46.232357 284.7467 45.185482L285.8717 45.185482ZM287.13733 44.654232Q287.13733 43.732357 287.4967 42.982357Q287.8717 42.232357 288.52795 41.841732Q289.1842 41.435482 290.01233 41.435482Q291.3092 41.435482 292.10608 42.326107Q292.91858 43.216732 292.91858 44.716732L292.91858 44.794857Q292.91858 45.716732 292.5592 46.451107Q292.19983 47.185482 291.54358 47.607357Q290.88733 48.013607 290.02795 48.013607Q288.7467 48.013607 287.9342 47.122982Q287.13733 46.216732 287.13733 44.732357L287.13733 44.654232ZM288.23108 44.794857Q288.23108 45.841732 288.71545 46.482357Q289.21545 47.122982 290.02795 47.122982Q290.85608 47.122982 291.34045 46.482357Q291.82483 45.826107 291.82483 44.654232Q291.82483 43.622982 291.32483 42.982357Q290.84045 42.326107 290.01233 42.326107Q289.21545 42.326107 288.71545 42.966732Q288.23108 43.591732 288.23108 44.794857ZM295.44983 41.544857L295.48108 42.341732Q296.21545 41.435482 297.38733 41.435482Q299.40295 41.435482 299.41858 43.701107L299.41858 47.888607L298.32483 47.888607L298.32483 43.685482Q298.32483 43.013607 298.01233 42.685482Q297.71545 42.357357 297.0592 42.357357Q296.52795 42.357357 296.1217 42.638607Q295.73108 42.919857 295.51233 43.372982L295.51233 47.888607L294.4342 47.888607L294.4342 41.544857L295.44983 41.544857ZM305.1217 46.201107Q305.1217 45.763607 304.77795 45.529232Q304.44983 45.279232 303.6217 45.107357Q302.8092 44.935482 302.32483 44.685482Q301.84045 44.435482 301.60608 44.107357Q301.38733 43.763607 301.38733 43.294857Q301.38733 42.513607 302.04358 41.982357Q302.69983 41.435482 303.73108 41.435482Q304.8092 41.435482 305.46545 41.997982Q306.13733 42.544857 306.13733 43.404232L305.0592 43.404232Q305.0592 42.966732 304.66858 42.654232Q304.29358 42.326107 303.73108 42.326107Q303.13733 42.326107 302.79358 42.591732Q302.46545 42.841732 302.46545 43.247982Q302.46545 43.638607 302.77795 43.841732Q303.09045 44.044857 303.90295 44.232357Q304.71545 44.404232 305.21545 44.654232Q305.71545 44.904232 305.94983 45.263607Q306.19983 45.622982 306.19983 46.122982Q306.19983 46.982357 305.51233 47.497982Q304.84045 48.013607 303.76233 48.013607Q302.9967 48.013607 302.40295 47.747982Q301.82483 47.466732 301.4967 46.982357Q301.16858 46.497982 301.16858 45.935482L302.2467 45.935482Q302.27795 46.482357 302.6842 46.810482Q303.09045 47.122982 303.76233 47.122982Q304.3717 47.122982 304.7467 46.872982Q305.1217 46.622982 305.1217 46.201107ZM311.34045 47.263607Q310.71545 48.013607 309.48108 48.013607Q308.46545 48.013607 307.9342 47.419857Q307.40295 46.826107 307.40295 45.669857L307.40295 41.544857L308.48108 41.544857L308.48108 45.638607Q308.48108 47.091732 309.65295 47.091732Q310.90295 47.091732 311.3092 46.154232L311.3092 41.544857L312.40295 41.544857L312.40295 47.888607L311.3717 47.888607L311.34045 47.263607ZM315.60608 47.888607L314.52795 47.888607L314.52795 38.888607L315.60608 38.888607L315.60608 47.888607ZM318.90295 40.013607L318.90295 41.544857L320.07483 41.544857L320.07483 42.388607L318.90295 42.388607L318.90295 46.310482Q318.90295 46.701107 319.0592 46.888607Q319.21545 47.076107 319.59045 47.076107Q319.77795 47.076107 320.10608 47.013607L320.10608 47.888607Q319.6842 48.013607 319.27795 48.013607Q318.5592 48.013607 318.1842 47.576107Q317.8092 47.122982 317.8092 46.310482L317.8092 42.388607L316.65295 42.388607L316.65295 41.544857L317.8092 41.544857L317.8092 40.013607L318.90295 40.013607ZM325.34045 47.888607Q325.2467 47.701107 325.1842 47.216732Q324.4342 48.013607 323.38733 48.013607Q322.44983 48.013607 321.84045 47.482357Q321.2467 46.951107 321.2467 46.122982Q321.2467 45.138607 321.9967 44.591732Q322.7467 44.044857 324.1217 44.044857L325.16858 44.044857L325.16858 43.544857Q325.16858 42.982357 324.82483 42.654232Q324.4967 42.310482 323.82483 42.310482Q323.2467 42.310482 322.85608 42.607357Q322.46545 42.888607 322.46545 43.310482L321.3717 43.310482Q321.3717 42.826107 321.69983 42.388607Q322.04358 41.951107 322.6217 41.701107Q323.19983 41.435482 323.88733 41.435482Q324.9967 41.435482 325.60608 41.982357Q326.23108 42.529232 326.26233 43.482357L326.26233 46.404232Q326.26233 47.279232 326.48108 47.794857L326.48108 47.888607L325.34045 47.888607ZM323.54358 47.060482Q324.0592 47.060482 324.51233 46.794857Q324.96545 46.529232 325.16858 46.107357L325.16858 44.810482L324.32483 44.810482Q322.32483 44.810482 322.32483 45.982357Q322.32483 46.482357 322.66858 46.779232Q323.01233 47.060482 323.54358 47.060482ZM329.44983 41.544857L329.48108 42.341732Q330.21545 41.435482 331.38733 41.435482Q333.40295 41.435482 333.41858 43.701107L333.41858 47.888607L332.32483 47.888607L332.32483 43.685482Q332.32483 43.013607 332.01233 42.685482Q331.71545 42.357357 331.0592 42.357357Q330.52795 42.357357 330.1217 42.638607Q329.73108 42.919857 329.51233 43.372982L329.51233 47.888607L328.4342 47.888607L328.4342 41.544857L329.44983 41.544857ZM336.90295 40.013607L336.90295 41.544857L338.07483 41.544857L338.07483 42.388607L336.90295 42.388607L336.90295 46.310482Q336.90295 46.701107 337.0592 46.888607Q337.21545 47.076107 337.59045 47.076107Q337.77795 47.076107 338.10608 47.013607L338.10608 47.888607Q337.6842 48.013607 337.27795 48.013607Q336.5592 48.013607 336.1842 47.576107Q335.8092 47.122982 335.8092 46.310482L335.8092 42.388607L334.65295 42.388607L334.65295 41.544857L335.8092 41.544857L335.8092 40.013607L336.90295 40.013607ZM343.1217 46.201107Q343.1217 45.763607 342.77795 45.529232Q342.44983 45.279232 341.6217 45.107357Q340.8092 44.935482 340.32483 44.685482Q339.84045 44.435482 339.60608 44.107357Q339.38733 43.763607 339.38733 43.294857Q339.38733 42.513607 340.04358 41.982357Q340.69983 41.435482 341.73108 41.435482Q342.8092 41.435482 343.46545 41.997982Q344.13733 42.544857 344.13733 43.404232L343.0592 43.404232Q343.0592 42.966732 342.66858 42.654232Q342.29358 42.326107 341.73108 42.326107Q341.13733 42.326107 340.79358 42.591732Q340.46545 42.841732 340.46545 43.247982Q340.46545 43.638607 340.77795 43.841732Q341.09045 44.044857 341.90295 44.232357Q342.71545 44.404232 343.21545 44.654232Q343.71545 44.904232 343.94983 45.263607Q344.19983 45.622982 344.19983 46.122982Q344.19983 46.982357 343.51233 47.497982Q342.84045 48.013607 341.76233 48.013607Q340.9967 48.013607 340.40295 47.747982Q339.82483 47.466732 339.4967 46.982357Q339.16858 46.497982 339.16858 45.935482L340.2467 45.935482Q340.27795 46.482357 340.6842 46.810482Q341.09045 47.122982 341.76233 47.122982Q342.3717 47.122982 342.7467 46.872982Q343.1217 46.622982 343.1217 46.201107Z" fill-rule="nonzero"/><path fill="#211a1d" d="M64.258514 27.63752L64.258514 33.653145L60.742886 33.653145L60.742886 16.590645L67.39914 16.590645Q69.321014 16.590645 70.77414 17.29377Q72.227264 17.996895 73.008514 19.29377Q73.80539 20.590645 73.80539 22.23127Q73.80539 24.746895 72.08664 26.20002Q70.36789 27.63752 67.33664 27.63752L64.258514 27.63752ZM64.258514 24.79377L67.39914 24.79377Q68.789764 24.79377 69.52414 24.13752Q70.258514 23.48127 70.258514 22.26252Q70.258514 21.01252 69.508514 20.246895Q68.77414 19.465645 67.477264 19.434395L64.258514 19.434395L64.258514 24.79377ZM82.86789 33.653145Q82.633514 33.20002 82.52414 32.51252Q81.289764 33.88752 79.321014 33.88752Q77.46164 33.88752 76.227264 32.809395Q75.008514 31.73127 75.008514 30.090645Q75.008514 28.07502 76.49289 26.996895Q77.99289 25.91877 80.821014 25.903145L82.383514 25.903145L82.383514 25.184395Q82.383514 24.29377 81.93039 23.778145Q81.477264 23.246895 80.508514 23.246895Q79.64914 23.246895 79.164764 23.653145Q78.68039 24.059395 78.68039 24.778145L75.289764 24.778145Q75.289764 23.684395 75.96164 22.746895Q76.64914 21.809395 77.883514 21.278145Q79.133514 20.73127 80.68039 20.73127Q83.02414 20.73127 84.39914 21.91877Q85.77414 23.090645 85.77414 25.23127L85.77414 30.715645Q85.789764 32.528145 86.289764 33.45002L86.289764 33.653145L82.86789 33.653145ZM80.05539 31.29377Q80.80539 31.29377 81.43039 30.965645Q82.071014 30.621895 82.383514 30.059395L82.383514 27.88752L81.11789 27.88752Q78.571014 27.88752 78.414764 29.63752L78.39914 29.840645Q78.39914 30.48127 78.83664 30.88752Q79.289764 31.29377 80.05539 31.29377ZM95.633514 24.153145Q94.946014 24.059395 94.414764 24.059395Q92.49289 24.059395 91.89914 25.35627L91.89914 33.653145L88.508514 33.653145L88.508514 20.965645L91.71164 20.965645L91.80539 22.48127Q92.821014 20.73127 94.633514 20.73127Q95.196014 20.73127 95.68039 20.88752L95.633514 24.153145ZM101.571014 17.85627L101.571014 20.965645L103.74289 20.965645L103.74289 23.45002L101.571014 23.45002L101.571014 29.778145Q101.571014 30.48127 101.83664 30.79377Q102.102264 31.090645 102.86789 31.090645Q103.43039 31.090645 103.86789 31.01252L103.86789 33.57502Q102.86789 33.88752 101.821014 33.88752Q98.258514 33.88752 98.18039 30.29377L98.18039 23.45002L96.33664 23.45002L96.33664 20.965645L98.18039 20.965645L98.18039 17.85627L101.571014 17.85627ZM110.99289 27.215645Q110.99289 24.246895 112.321014 22.496895Q113.64914 20.73127 115.96164 20.73127Q117.80539 20.73127 119.008514 22.121895L119.008514 15.653145L122.414764 15.653145L122.414764 33.653145L119.352264 33.653145L119.196014 32.309395Q117.93039 33.88752 115.93039 33.88752Q113.696014 33.88752 112.33664 32.121895Q110.99289 30.35627 110.99289 27.215645ZM114.36789 27.465645Q114.36789 29.246895 114.99289 30.20002Q115.61789 31.13752 116.80539 31.13752Q118.36789 31.13752 119.008514 29.82502L119.008514 24.809395Q118.383514 23.496895 116.821014 23.496895Q114.36789 23.496895 114.36789 27.465645ZM133.10226 32.35627Q131.85226 33.88752 129.63351 33.88752Q127.602264 33.88752 126.52414 32.715645Q125.46164 31.54377 125.43039 29.278145L125.43039 20.965645L128.82101 20.965645L128.82101 29.16877Q128.82101 31.13752 130.61789 31.13752Q132.35226 31.13752 132.99289 29.95002L132.99289 20.965645L136.38351 20.965645L136.38351 33.653145L133.19601 33.653145L133.10226 32.35627ZM148.08664 33.653145L144.69601 33.653145L144.69601 15.653145L148.08664 15.653145L148.08664 33.653145ZM154.08664 33.653145L150.69601 33.653145L150.69601 20.965645L154.08664 20.965645L154.08664 33.653145ZM150.49289 17.684395Q150.49289 16.934395 150.99289 16.45002Q151.50851 15.95002 152.38351 15.95002Q153.25851 15.95002 153.77414 16.45002Q154.28976 16.934395 154.28976 17.684395Q154.28976 18.465645 153.75851 18.965645Q153.24289 19.45002 152.38351 19.45002Q151.53976 19.45002 151.00851 18.965645Q150.49289 18.465645 150.49289 17.684395ZM167.94601 27.434395Q167.94601 30.48127 166.63351 32.184395Q165.33664 33.88752 163.00851 33.88752Q160.94601 33.88752 159.71164 32.309395L159.55539 33.653145L156.50851 33.653145L156.50851 15.653145L159.89914 15.653145L159.89914 22.10627Q161.07101 20.73127 162.97726 20.73127Q165.30539 20.73127 166.61789 22.45002Q167.94601 24.153145 167.94601 27.246895L167.94601 27.434395ZM164.55539 27.184395Q164.55539 25.26252 163.94601 24.38752Q163.33664 23.496895 162.13351 23.496895Q160.50851 23.496895 159.89914 24.809395L159.89914 29.82502Q160.52414 31.153145 162.14914 31.153145Q163.78976 31.153145 164.30539 29.54377Q164.55539 28.76252 164.55539 27.184395ZM177.63351 24.153145Q176.94601 24.059395 176.41476 24.059395Q174.49289 24.059395 173.89914 25.35627L173.89914 33.653145L170.50851 33.653145L170.50851 20.965645L173.71164 20.965645L173.80539 22.48127Q174.82101 20.73127 176.63351 20.73127Q177.19601 20.73127 177.68039 20.88752L177.63351 24.153145ZM185.35226 33.88752Q182.55539 33.88752 180.80539 32.184395Q179.05539 30.465645 179.05539 27.621895L179.05539 27.29377Q179.05539 25.371895 179.78976 23.871895Q180.53976 22.371895 181.88351 21.559395Q183.24289 20.73127 184.97726 20.73127Q187.57101 20.73127 189.07101 22.371895Q190.57101 24.01252 190.57101 27.028145L190.57101 28.41877L182.49289 28.41877Q182.64914 29.653145 183.47726 30.403145Q184.30539 31.153145 185.57101 31.153145Q187.52414 31.153145 188.63351 29.73127L190.28976 31.60627Q189.53976 32.684395 188.22726 33.29377Q186.93039 33.88752 185.35226 33.88752ZM184.96164 23.48127Q183.96164 23.48127 183.32101 24.16877Q182.69601 24.840645 182.52414 26.10627L187.24289 26.10627L187.24289 25.840645Q187.21164 24.715645 186.61789 24.10627Q186.03976 23.48127 184.96164 23.48127ZM197.99289 27.215645Q197.99289 24.246895 199.32101 22.496895Q200.64914 20.73127 202.96164 20.73127Q204.80539 20.73127 206.00851 22.121895L206.00851 15.653145L209.41476 15.653145L209.41476 33.653145L206.35226 33.653145L206.19601 32.309395Q204.93039 33.88752 202.93039 33.88752Q200.69601 33.88752 199.33664 32.121895Q197.99289 30.35627 197.99289 27.215645ZM201.36789 27.465645Q201.36789 29.246895 201.99289 30.20002Q202.61789 31.13752 203.80539 31.13752Q205.36789 31.13752 206.00851 29.82502L206.00851 24.809395Q205.38351 23.496895 203.82101 23.496895Q201.36789 23.496895 201.36789 27.465645ZM219.86789 33.653145Q219.63351 33.20002 219.52414 32.51252Q218.28976 33.88752 216.32101 33.88752Q214.46164 33.88752 213.22726 32.809395Q212.00851 31.73127 212.00851 30.090645Q212.00851 28.07502 213.49289 26.996895Q214.99289 25.91877 217.82101 25.903145L219.38351 25.903145L219.38351 25.184395Q219.38351 24.29377 218.93039 23.778145Q218.47726 23.246895 217.50851 23.246895Q216.64914 23.246895 216.16476 23.653145Q215.68039 24.059395 215.68039 24.778145L212.28976 24.778145Q212.28976 23.684395 212.96164 22.746895Q213.64914 21.809395 214.88351 21.278145Q216.13351 20.73127 217.68039 20.73127Q220.02414 20.73127 221.39914 21.91877Q222.77414 23.090645 222.77414 25.23127L222.77414 30.715645Q222.78976 32.528145 223.28976 33.45002L223.28976 33.653145L219.86789 33.653145ZM217.05539 31.29377Q217.80539 31.29377 218.43039 30.965645Q219.07101 30.621895 219.38351 30.059395L219.38351 27.88752L218.11789 27.88752Q215.57101 27.88752 215.41476 29.63752L215.39914 29.840645Q215.39914 30.48127 215.83664 30.88752Q216.28976 31.29377 217.05539 31.29377ZM228.63351 20.965645L228.74289 22.434395Q230.10226 20.73127 232.38351 20.73127Q234.39914 20.73127 235.38351 21.91877Q236.36789 23.10627 236.38351 25.465645L236.38351 33.653145L233.00851 33.653145L233.00851 25.54377Q233.00851 24.465645 232.53976 23.98127Q232.07101 23.496895 230.97726 23.496895Q229.53976 23.496895 228.83664 24.715645L228.83664 33.653145L225.44601 33.653145L225.44601 20.965645L228.63351 20.965645ZM245.38351 30.153145Q245.38351 29.528145 244.75851 29.16877Q244.14914 28.809395 242.78976 28.528145Q238.27414 27.57502 238.27414 24.684395Q238.27414 22.996895 239.66476 21.871895Q241.07101 20.73127 243.33664 20.73127Q245.74289 20.73127 247.18039 21.871895Q248.63351 23.01252 248.63351 24.82502L245.25851 24.82502Q245.25851 24.10627 244.78976 23.63752Q244.32101 23.153145 243.32101 23.153145Q242.46164 23.153145 241.99289 23.54377Q241.52414 23.91877 241.52414 24.528145Q241.52414 25.090645 242.05539 25.434395Q242.58664 25.778145 243.85226 26.028145Q245.11789 26.278145 245.99289 26.590645Q248.68039 27.57502 248.68039 30.01252Q248.68039 31.746895 247.18039 32.82502Q245.69601 33.88752 243.33664 33.88752Q241.74289 33.88752 240.50851 33.32502Q239.27414 32.746895 238.57101 31.76252Q237.86789 30.76252 237.86789 29.621895L241.08664 29.621895Q241.13351 30.528145 241.74289 31.01252Q242.36789 31.48127 243.41476 31.48127Q244.38351 31.48127 244.88351 31.121895Q245.38351 30.746895 245.38351 30.153145ZM260.08664 33.653145L256.696 33.653145L256.696 15.653145L260.08664 15.653145L260.08664 33.653145ZM268.35226 33.88752Q265.5554 33.88752 263.8054 32.184395Q262.0554 30.465645 262.0554 27.621895L262.0554 27.29377Q262.0554 25.371895 262.78976 23.871895Q263.53976 22.371895 264.8835 21.559395Q266.2429 20.73127 267.97726 20.73127Q270.571 20.73127 272.071 22.371895Q273.571 24.01252 273.571 27.028145L273.571 28.41877L265.4929 28.41877Q265.64914 29.653145 266.47726 30.403145Q267.3054 31.153145 268.571 31.153145Q270.52414 31.153145 271.6335 29.73127L273.28976 31.60627Q272.53976 32.684395 271.22726 33.29377Q269.9304 33.88752 268.35226 33.88752ZM267.96164 23.48127Q266.96164 23.48127 266.321 24.16877Q265.696 24.840645 265.52414 26.10627L270.2429 26.10627L270.2429 25.840645Q270.21164 24.715645 269.6179 24.10627Q269.03976 23.48127 267.96164 23.48127ZM284.696 20.965645L284.78976 22.38752Q286.14914 20.73127 288.446 20.73127Q290.8835 20.73127 291.8054 22.66877Q293.1335 20.73127 295.6179 20.73127Q297.6804 20.73127 298.6804 21.934395Q299.696 23.13752 299.696 25.559395L299.696 33.653145L296.28976 33.653145L296.28976 25.559395Q296.28976 24.48127 295.8679 23.996895Q295.446 23.496895 294.3835 23.496895Q292.85226 23.496895 292.27414 24.95002L292.28976 33.653145L288.89914 33.653145L288.89914 25.57502Q288.89914 24.48127 288.46164 23.996895Q288.02414 23.496895 286.9929 23.496895Q285.53976 23.496895 284.89914 24.684395L284.89914 33.653145L281.5085 33.653145L281.5085 20.965645L284.696 20.965645ZM309.8679 33.653145Q309.6335 33.20002 309.52414 32.51252Q308.28976 33.88752 306.321 33.88752Q304.46164 33.88752 303.22726 32.809395Q302.0085 31.73127 302.0085 30.090645Q302.0085 28.07502 303.4929 26.996895Q304.9929 25.91877 307.821 25.903145L309.3835 25.903145L309.3835 25.184395Q309.3835 24.29377 308.9304 23.778145Q308.47726 23.246895 307.5085 23.246895Q306.64914 23.246895 306.16476 23.653145Q305.6804 24.059395 305.6804 24.778145L302.28976 24.778145Q302.28976 23.684395 302.96164 22.746895Q303.64914 21.809395 304.8835 21.278145Q306.1335 20.73127 307.6804 20.73127Q310.02414 20.73127 311.39914 21.91877Q312.77414 23.090645 312.77414 25.23127L312.77414 30.715645Q312.78976 32.528145 313.28976 33.45002L313.28976 33.653145L309.8679 33.653145ZM307.0554 31.29377Q307.8054 31.29377 308.4304 30.965645Q309.071 30.621895 309.3835 30.059395L309.3835 27.88752L308.1179 27.88752Q305.571 27.88752 305.41476 29.63752L305.39914 29.840645Q305.39914 30.48127 305.83664 30.88752Q306.28976 31.29377 307.0554 31.29377ZM322.6335 24.153145Q321.946 24.059395 321.41476 24.059395Q319.4929 24.059395 318.89914 25.35627L318.89914 33.653145L315.5085 33.653145L315.5085 20.965645L318.71164 20.965645L318.8054 22.48127Q319.821 20.73127 321.6335 20.73127Q322.196 20.73127 322.6804 20.88752L322.6335 24.153145ZM329.78976 31.153145Q330.72726 31.153145 331.3054 30.63752Q331.89914 30.121895 331.91476 29.26252L335.10226 29.26252Q335.08664 30.559395 334.3835 31.63752Q333.696 32.70002 332.4929 33.29377Q331.3054 33.88752 329.85226 33.88752Q327.1335 33.88752 325.5554 32.16877Q323.9929 30.434395 323.9929 27.38752L323.9929 27.153145Q323.9929 24.23127 325.53976 22.48127Q327.10226 20.73127 329.821 20.73127Q332.196 20.73127 333.6335 22.090645Q335.071 23.45002 335.10226 25.70002L331.91476 25.70002Q331.89914 24.715645 331.3054 24.10627Q330.72726 23.48127 329.7585 23.48127Q328.58664 23.48127 327.97726 24.340645Q327.3679 25.20002 327.3679 27.13752L327.3679 27.48127Q327.3679 29.45002 327.96164 30.309395Q328.571 31.153145 329.78976 31.153145ZM340.821 22.35627Q342.16476 20.73127 344.21164 20.73127Q348.33664 20.73127 348.3835 25.528145L348.3835 33.653145L345.0085 33.653145L345.0085 25.621895Q345.0085 24.528145 344.53976 24.01252Q344.071 23.496895 342.97726 23.496895Q341.4929 23.496895 340.821 24.63752L340.821 33.653145L337.4304 33.653145L337.4304 15.653145L340.821 15.653145L340.821 22.35627ZM356.35226 33.88752Q353.5554 33.88752 351.8054 32.184395Q350.0554 30.465645 350.0554 27.621895L350.0554 27.29377Q350.0554 25.371895 350.78976 23.871895Q351.53976 22.371895 352.8835 21.559395Q354.2429 20.73127 355.97726 20.73127Q358.571 20.73127 360.071 22.371895Q361.571 24.01252 361.571 27.028145L361.571 28.41877L353.4929 28.41877Q353.64914 29.653145 354.47726 30.403145Q355.3054 31.153145 356.571 31.153145Q358.52414 31.153145 359.6335 29.73127L361.28976 31.60627Q360.53976 32.684395 359.22726 33.29377Q357.9304 33.88752 356.35226 33.88752ZM355.96164 23.48127Q354.96164 23.48127 354.321 24.16877Q353.696 24.840645 353.52414 26.10627L358.2429 26.10627L358.2429 25.840645Q358.21164 24.715645 357.6179 24.10627Q357.03976 23.48127 355.96164 23.48127ZM356.27414 15.653145L359.96164 15.653145L356.71164 19.278145L353.96164 19.278145L356.27414 15.653145ZM368.9929 27.215645Q368.9929 24.246895 370.321 22.496895Q371.64914 20.73127 373.96164 20.73127Q375.8054 20.73127 377.0085 22.121895L377.0085 15.653145L380.41476 15.653145L380.41476 33.653145L377.35226 33.653145L377.196 32.309395Q375.9304 33.88752 373.9304 33.88752Q371.696 33.88752 370.33664 32.121895Q368.9929 30.35627 368.9929 27.215645ZM372.3679 27.465645Q372.3679 29.246895 372.9929 30.20002Q373.6179 31.13752 374.8054 31.13752Q376.3679 31.13752 377.0085 29.82502L377.0085 24.809395Q376.3835 23.496895 374.821 23.496895Q372.3679 23.496895 372.3679 27.465645ZM391.10226 32.35627Q389.85226 33.88752 387.6335 33.88752Q385.60226 33.88752 384.52414 32.715645Q383.46164 31.54377 383.4304 29.278145L383.4304 20.965645L386.821 20.965645L386.821 29.16877Q386.821 31.13752 388.6179 31.13752Q390.35226 31.13752 390.9929 29.95002L390.9929 20.965645L394.3835 20.965645L394.3835 33.653145L391.196 33.653145L391.10226 32.35627ZM406.08664 33.653145L402.696 33.653145L402.696 15.653145L406.08664 15.653145L406.08664 33.653145ZM407.9929 27.20002Q407.9929 25.309395 408.71164 23.840645Q409.446 22.35627 410.8054 21.54377Q412.16476 20.73127 413.97726 20.73127Q416.53976 20.73127 418.16476 22.309395Q419.78976 23.871895 419.97726 26.57502L419.9929 27.434395Q419.9929 30.35627 418.3679 32.121895Q416.7429 33.88752 413.9929 33.88752Q411.2585 33.88752 409.6179 32.13752Q407.9929 30.371895 407.9929 27.340645L407.9929 27.20002ZM411.3679 27.434395Q411.3679 29.246895 412.03976 30.20002Q412.72726 31.153145 413.9929 31.153145Q415.22726 31.153145 415.91476 30.215645Q416.6179 29.26252 416.6179 27.20002Q416.6179 25.41877 415.91476 24.45002Q415.22726 23.48127 413.97726 23.48127Q412.72726 23.48127 412.03976 24.45002Q411.3679 25.41877 411.3679 27.434395ZM422.02414 27.215645Q422.02414 24.29377 423.41476 22.51252Q424.8054 20.73127 427.14914 20.73127Q429.2429 20.73127 430.39914 22.16877L430.53976 20.965645L433.6179 20.965645L433.6179 33.23127Q433.6179 34.903145 432.85226 36.121895Q432.10226 37.35627 430.72726 37.996895Q429.35226 38.653145 427.52414 38.653145Q426.1179 38.653145 424.78976 38.090645Q423.47726 37.528145 422.78976 36.653145L424.28976 34.590645Q425.5554 36.01252 427.3679 36.01252Q428.71164 36.01252 429.46164 35.29377Q430.21164 34.57502 430.21164 33.246895L430.21164 32.559395Q429.03976 33.88752 427.1335 33.88752Q424.85226 33.88752 423.4304 32.10627Q422.02414 30.309395 422.02414 27.35627L422.02414 27.215645ZM425.41476 27.465645Q425.41476 29.184395 426.10226 30.16877Q426.78976 31.13752 427.9929 31.13752Q429.53976 31.13752 430.21164 29.98127L430.21164 24.653145Q429.53976 23.496895 428.02414 23.496895Q426.8054 23.496895 426.10226 24.496895Q425.41476 25.48127 425.41476 27.465645ZM440.08664 33.653145L436.696 33.653145L436.696 20.965645L440.08664 20.965645L440.08664 33.653145ZM436.4929 17.684395Q436.4929 16.934395 436.9929 16.45002Q437.5085 15.95002 438.3835 15.95002Q439.2585 15.95002 439.77414 16.45002Q440.28976 16.934395 440.28976 17.684395Q440.28976 18.465645 439.7585 18.965645Q439.2429 19.45002 438.3835 19.45002Q437.53976 19.45002 437.0085 18.965645Q436.4929 18.465645 436.4929 17.684395ZM447.78976 31.153145Q448.72726 31.153145 449.3054 30.63752Q449.89914 30.121895 449.91476 29.26252L453.10226 29.26252Q453.08664 30.559395 452.3835 31.63752Q451.696 32.70002 450.4929 33.29377Q449.3054 33.88752 447.85226 33.88752Q445.1335 33.88752 443.5554 32.16877Q441.9929 30.434395 441.9929 27.38752L441.9929 27.153145Q441.9929 24.23127 443.53976 22.48127Q445.10226 20.73127 447.821 20.73127Q450.196 20.73127 451.6335 22.090645Q453.071 23.45002 453.10226 25.70002L449.91476 25.70002Q449.89914 24.715645 449.3054 24.10627Q448.72726 23.48127 447.7585 23.48127Q446.58664 23.48127 445.97726 24.340645Q445.3679 25.20002 445.3679 27.13752L445.3679 27.48127Q445.3679 29.45002 445.96164 30.309395Q446.571 31.153145 447.78976 31.153145ZM459.08664 33.653145L455.696 33.653145L455.696 20.965645L459.08664 20.965645L459.08664 33.653145ZM455.4929 17.684395Q455.4929 16.934395 455.9929 16.45002Q456.5085 15.95002 457.3835 15.95002Q458.2585 15.95002 458.77414 16.45002Q459.28976 16.934395 459.28976 17.684395Q459.28976 18.465645 458.7585 18.965645Q458.2429 19.45002 457.3835 19.45002Q456.53976 19.45002 456.0085 18.965645Q455.4929 18.465645 455.4929 17.684395ZM467.35226 33.88752Q464.5554 33.88752 462.8054 32.184395Q461.0554 30.465645 461.0554 27.621895L461.0554 27.29377Q461.0554 25.371895 461.78976 23.871895Q462.53976 22.371895 463.8835 21.559395Q465.2429 20.73127 466.97726 20.73127Q469.571 20.73127 471.071 22.371895Q472.571 24.01252 472.571 27.028145L472.571 28.41877L464.4929 28.41877Q464.64914 29.653145 465.47726 30.403145Q466.3054 31.153145 467.571 31.153145Q469.52414 31.153145 470.6335 29.73127L472.28976 31.60627Q471.53976 32.684395 470.22726 33.29377Q468.9304 33.88752 467.35226 33.88752ZM466.96164 23.48127Q465.96164 23.48127 465.321 24.16877Q464.696 24.840645 464.52414 26.10627L469.2429 26.10627L469.2429 25.840645Q469.21164 24.715645 468.6179 24.10627Q468.03976 23.48127 466.96164 23.48127ZM478.08664 33.653145L474.696 33.653145L474.696 15.653145L478.08664 15.653145L478.08664 33.653145ZM486.66476 26.715645Q486.66476 24.028145 487.3835 21.60627Q488.10226 19.184395 489.4929 17.309395Q490.8835 15.434395 492.5085 14.715645L493.16476 16.54377Q491.46164 17.809395 490.4929 20.465645Q489.53976 23.10627 489.53976 26.63752L489.53976 27.01252Q489.53976 30.559395 490.47726 33.23127Q491.4304 35.88752 493.16476 37.20002L492.5085 38.98127Q490.91476 38.278145 489.53976 36.465645Q488.16476 34.653145 487.4304 32.29377Q486.71164 29.91877 486.66476 27.340645L486.66476 26.715645ZM500.35226 33.88752Q497.5554 33.88752 495.8054 32.184395Q494.0554 30.465645 494.0554 27.621895L494.0554 27.29377Q494.0554 25.371895 494.78976 23.871895Q495.53976 22.371895 496.8835 21.559395Q498.2429 20.73127 499.97726 20.73127Q502.571 20.73127 504.071 22.371895Q505.571 24.01252 505.571 27.028145L505.571 28.41877L497.4929 28.41877Q497.64914 29.653145 498.47726 30.403145Q499.3054 31.153145 500.571 31.153145Q502.52414 31.153145 503.6335 29.73127L505.28976 31.60627Q504.53976 32.684395 503.22726 33.29377Q501.9304 33.88752 500.35226 33.88752ZM499.96164 23.48127Q498.96164 23.48127 498.321 24.16877Q497.696 24.840645 497.52414 26.10627L502.2429 26.10627L502.2429 25.840645Q502.21164 24.715645 501.6179 24.10627Q501.03976 23.48127 499.96164 23.48127ZM510.6335 20.965645L510.7429 22.434395Q512.1023 20.73127 514.38354 20.73127Q516.3992 20.73127 517.38354 21.91877Q518.3679 23.10627 518.38354 25.465645L518.38354 33.653145L515.00854 33.653145L515.00854 25.54377Q515.00854 24.465645 514.5398 23.98127Q514.07104 23.496895 512.9773 23.496895Q511.53976 23.496895 510.83664 24.715645L510.83664 33.653145L507.446 33.653145L507.446 20.965645L510.6335 20.965645ZM526.321 19.871895Q526.321 18.29377 527.3366 17.32502Q528.36786 16.340645 530.0241 16.340645Q531.696 16.340645 532.7116 17.309395Q533.72723 18.278145 533.72723 19.934395L533.72723 20.778145Q533.72723 22.35627 532.7116 23.32502Q531.696 24.278145 530.03973 24.278145Q528.3835 24.278145 527.35223 23.309395Q526.321 22.340645 526.321 20.70002L526.321 19.871895ZM528.571 20.778145Q528.571 21.48127 528.97723 21.903145Q529.3835 22.32502 530.03973 22.32502Q530.696 22.32502 531.0866 21.903145Q531.47723 21.465645 531.47723 20.73127L531.47723 19.871895Q531.47723 19.16877 531.0866 18.73127Q530.696 18.29377 530.0241 18.29377Q529.36786 18.29377 528.9616 18.73127Q528.571 19.153145 528.571 19.91877L528.571 20.778145ZM534.47723 29.465645Q534.47723 27.88752 535.5085 26.91877Q536.53973 25.95002 538.18036 25.95002Q539.85223 25.95002 540.86786 26.903145Q541.8991 27.85627 541.8991 29.54377L541.8991 30.38752Q541.8991 31.95002 540.8835 32.91877Q539.8835 33.88752 538.2116 33.88752Q536.5241 33.88752 535.49286 32.91877Q534.47723 31.934395 534.47723 30.340645L534.47723 29.465645ZM536.72723 30.38752Q536.72723 31.028145 537.1491 31.48127Q537.571 31.934395 538.2116 31.934395Q539.6335 31.934395 539.6335 30.35627L539.6335 29.465645Q539.6335 28.76252 539.22723 28.340645Q538.8366 27.903145 538.18036 27.903145Q537.5241 27.903145 537.11786 28.340645Q536.72723 28.76252 536.72723 29.496895L536.72723 30.38752ZM530.7116 32.371895L529.05536 31.48127L537.3835 18.153145L539.03973 19.04377L530.7116 32.371895ZM550.35223 26.98127Q550.35223 29.63752 549.5866 32.090645Q548.821 34.528145 547.3835 36.403145Q545.9616 38.278145 544.3366 38.98127L543.68036 37.20002Q545.35223 35.934395 546.30536 33.32502Q547.2741 30.715645 547.30536 27.309395L547.30536 26.684395Q547.30536 23.184395 546.35223 20.51252Q545.3991 17.840645 543.68036 16.51252L544.3366 14.715645Q545.93036 15.403145 547.3366 17.23127Q548.7585 19.04377 549.53973 21.465645Q550.321 23.871895 550.35223 26.45002L550.35223 26.98127Z" fill-rule="nonzero"/></svg>