<svg xmlns="http://www.w3.org/2000/svg" xmlns:xlink="http://www.w3.org/1999/xlink" width="262" zoomAndPan="magnify" viewBox="0 0 196.5 191.999996" height="256" preserveAspectRatio="xMidYMid meet" version="1.0"><defs><g/><clipPath id="78d390a8a2"><path d="M 38.226562 38.3125 L 108 38.3125 L 108 87 L 38.226562 87 Z M 38.226562 38.3125 " clip-rule="nonzero"/></clipPath><clipPath id="44bc0153da"><path d="M 38.605469 85 L 91 85 L 91 153.769531 L 38.605469 153.769531 Z M 38.605469 85 " clip-rule="nonzero"/></clipPath><clipPath id="184d9eb94d"><path d="M 61 56 L 158.976562 56 L 158.976562 109 L 61 109 Z M 61 56 " clip-rule="nonzero"/></clipPath></defs><g clip-path="url(#78d390a8a2)"><path fill="#231f20" d="M 46.054688 82.355469 C 46.742188 81.992188 47.480469 81.710938 48.222656 81.429688 C 48.953125 81.160156 49.710938 80.953125 50.472656 80.796875 C 51.222656 80.683594 51.980469 80.582031 52.710938 80.617188 C 53.085938 80.609375 53.433594 80.691406 53.800781 80.703125 C 54.15625 80.777344 54.523438 80.8125 54.859375 80.925781 C 55.535156 81.140625 56.210938 81.367188 56.820312 81.683594 C 57.4375 81.992188 58 82.355469 58.535156 82.683594 C 59.023438 83.074219 59.527344 83.382812 59.921875 83.738281 C 60.324219 84.082031 60.71875 84.355469 60.992188 84.625 C 61.570312 85.140625 61.9375 85.4375 61.9375 85.4375 C 61.9375 85.4375 62.097656 85.296875 62.492188 83.347656 C 62.882812 81.394531 63.539062 78.648438 64.554688 75.453125 C 65.058594 73.863281 65.6875 72.164062 66.398438 70.410156 C 67.09375 68.644531 68.011719 66.867188 68.929688 65.046875 C 69.90625 63.242188 71.039062 61.460938 72.25 59.714844 C 73.476562 57.964844 74.835938 56.285156 76.347656 54.742188 C 77.085938 53.949219 77.835938 53.175781 78.644531 52.464844 C 79.421875 51.71875 80.253906 51.042969 81.082031 50.371094 C 82.75 49.046875 84.457031 47.8125 86.207031 46.746094 C 87.980469 45.71875 89.707031 44.730469 91.441406 43.9375 C 92.273438 43.488281 93.144531 43.160156 93.972656 42.804688 C 94.804688 42.460938 95.59375 42.066406 96.390625 41.804688 C 97.964844 41.253906 99.40625 40.667969 100.738281 40.285156 C 102.050781 39.882812 103.195312 39.460938 104.171875 39.226562 C 106.09375 38.695312 107.207031 38.339844 107.207031 38.339844 C 107.207031 38.339844 106.054688 38.304688 104.03125 38.332031 C 103.007812 38.320312 101.789062 38.433594 100.375 38.582031 C 98.957031 38.675781 97.375 38.964844 95.648438 39.304688 C 93.933594 39.65625 92.066406 40.097656 90.15625 40.789062 C 88.222656 41.421875 86.226562 42.234375 84.25 43.253906 C 82.269531 44.300781 80.246094 45.449219 78.371094 46.878906 C 77.433594 47.597656 76.46875 48.296875 75.605469 49.128906 C 74.695312 49.914062 73.84375 50.753906 73.019531 51.632812 C 71.378906 53.390625 69.914062 55.292969 68.613281 57.257812 C 67.28125 59.199219 66.269531 61.292969 65.332031 63.300781 C 64.421875 65.335938 63.710938 67.363281 63.183594 69.316406 C 62.613281 71.257812 62.257812 73.136719 62.003906 74.875 C 61.476562 78.339844 61.476562 81.261719 61.589844 83.28125 C 61.636719 84.195312 61.710938 84.710938 61.777344 85.019531 C 61.703125 84.820312 61.609375 84.578125 61.476562 84.269531 C 61.160156 83.53125 60.605469 82.515625 59.726562 81.414062 C 58.816406 80.328125 57.511719 79.152344 55.757812 78.414062 C 54.886719 78.058594 53.921875 77.761719 52.910156 77.683594 C 51.90625 77.554688 50.894531 77.675781 49.898438 77.824219 C 47.929688 78.21875 46.148438 79.058594 44.695312 80.058594 C 43.945312 80.523438 43.308594 81.09375 42.710938 81.617188 C 42.117188 82.140625 41.59375 82.683594 41.144531 83.207031 C 39.316406 85.269531 38.605469 86.988281 38.605469 86.988281 C 38.605469 86.988281 40.105469 85.925781 42.289062 84.511719 C 43.382812 83.820312 44.660156 83.046875 46.054688 82.355469 " fill-opacity="1" fill-rule="nonzero"/></g><g clip-path="url(#44bc0153da)"><path fill="#231f20" d="M 79.945312 133.421875 C 78.859375 132.730469 75.183594 132.050781 74.535156 131.855469 L 72.753906 131.359375 C 71.648438 131.03125 70.503906 130.796875 69.4375 130.414062 C 68.789062 130.136719 68.144531 129.855469 67.496094 129.582031 C 66.597656 129.210938 65.714844 128.78125 64.871094 128.285156 C 64.394531 128.003906 63.914062 127.714844 63.429688 127.445312 C 62.875 127.0625 62.359375 126.632812 61.84375 126.210938 C 61.167969 125.652344 60.53125 125.054688 59.921875 124.417969 C 59.921875 124.410156 59.914062 124.398438 59.902344 124.390625 C 59.179688 123.632812 58.523438 122.8125 57.925781 121.953125 L 57.757812 121.710938 L 57.296875 121.046875 L 56.929688 120.316406 L 56.191406 118.871094 C 55.957031 118.382812 55.804688 117.851562 55.601562 117.347656 C 55.273438 116.601562 55.066406 115.796875 54.851562 115.003906 C 54.710938 114.46875 54.578125 113.929688 54.476562 113.386719 C 54.316406 112.574219 54.15625 111.75 54.101562 110.910156 C 53.960938 109.800781 53.949219 108.667969 53.914062 107.546875 C 53.894531 106.457031 53.941406 105.269531 54.054688 104.289062 C 54.210938 103.699219 54.335938 103.167969 54.445312 102.617188 C 54.570312 101.980469 54.664062 101.355469 54.746094 100.71875 C 54.90625 99.460938 54.960938 98.171875 54.933594 96.882812 C 54.925781 96.238281 54.867188 95.59375 54.804688 94.949219 C 54.71875 94.292969 54.644531 93.648438 54.484375 93.003906 C 54.363281 92.371094 54.136719 91.695312 53.902344 91.035156 C 53.789062 90.695312 53.660156 90.472656 53.527344 90.183594 L 53.320312 89.707031 L 53.011719 89.222656 C 52.648438 88.558594 52.101562 88.035156 51.558594 87.539062 C 50.960938 87.121094 50.367188 86.71875 49.710938 86.484375 C 49.074219 86.214844 48.417969 86.074219 47.773438 85.953125 C 47.125 85.839844 46.488281 85.773438 45.859375 85.765625 C 43.328125 85.71875 40.890625 86.195312 38.605469 86.988281 C 39.804688 86.875 41.011719 86.894531 42.203125 86.933594 C 42.792969 86.960938 43.375 87 43.957031 87.074219 C 44.546875 87.136719 45.117188 87.242188 45.671875 87.34375 C 46.234375 87.457031 46.777344 87.605469 47.292969 87.792969 C 47.800781 87.988281 48.316406 88.195312 48.738281 88.484375 C 49.195312 88.726562 49.542969 89.0625 49.898438 89.371094 C 50.179688 89.753906 50.472656 90.089844 50.621094 90.519531 L 50.761719 90.820312 C 50.753906 90.828125 50.835938 91.070312 50.867188 91.183594 C 50.941406 91.464844 51.0625 91.78125 51.101562 92.023438 C 51.195312 92.507812 51.277344 92.984375 51.34375 93.546875 C 51.417969 94.070312 51.429688 94.621094 51.445312 95.164062 C 51.445312 95.714844 51.4375 96.265625 51.390625 96.816406 C 51.316406 97.917969 51.136719 99.019531 50.921875 100.113281 C 50.808594 100.664062 50.695312 101.207031 50.554688 101.746094 C 50.425781 102.28125 50.257812 102.851562 50.097656 103.289062 L 50.058594 103.402344 L 50.03125 103.558594 C 49.777344 104.953125 49.675781 106.164062 49.609375 107.464844 C 49.542969 108.753906 49.582031 110.03125 49.703125 111.3125 C 49.75 112.339844 49.929688 113.347656 50.105469 114.367188 C 50.199219 114.890625 50.3125 115.402344 50.433594 115.917969 C 50.6875 116.925781 50.921875 117.9375 51.324219 118.90625 C 51.558594 119.523438 51.773438 120.140625 52.054688 120.738281 L 52.992188 122.492188 L 53.460938 123.363281 L 54.042969 124.175781 L 54.558594 124.886719 C 55 125.484375 55.460938 126.070312 55.964844 126.621094 C 56.164062 126.828125 56.351562 127.035156 56.546875 127.230469 C 57.382812 128.078125 58.289062 128.847656 59.246094 129.546875 C 59.59375 129.808594 59.949219 130.058594 60.304688 130.304688 C 60.914062 130.722656 61.570312 131.078125 62.226562 131.414062 C 62.507812 131.5625 62.78125 131.703125 63.0625 131.84375 C 64.027344 132.339844 65.039062 132.761719 66.070312 133.085938 C 66.558594 133.234375 67.039062 133.386719 67.515625 133.535156 C 68.117188 133.722656 68.714844 133.898438 69.324219 134.019531 C 70.261719 134.199219 71.207031 134.320312 72.136719 134.496094 L 73.074219 134.648438 L 73.890625 134.769531 C 74.425781 134.851562 74.988281 134.953125 75.539062 135.09375 C 76.636719 135.375 77.722656 135.722656 78.753906 136.179688 C 89.808594 141.539062 90.117188 152.570312 90.371094 153.769531 C 90.417969 152.570312 91.925781 139.738281 79.945312 133.421875 " fill-opacity="1" fill-rule="nonzero"/></g><g clip-path="url(#184d9eb94d)"><path fill="#231f20" d="M 157.757812 68.128906 C 157.175781 67.457031 156.285156 66.476562 154.992188 65.402344 C 152.449219 63.234375 148.308594 60.507812 142.671875 58.816406 C 137.085938 57.042969 130.089844 56.414062 122.828125 57.332031 C 121.917969 57.433594 120.988281 57.59375 120.050781 57.734375 C 119.976562 57.742188 119.890625 57.761719 119.816406 57.769531 C 117.15625 58.414062 114.5 59.050781 111.847656 59.695312 C 111.828125 59.695312 111.820312 59.703125 111.800781 59.703125 C 108.125 60.898438 104.367188 62.476562 101.085938 65.019531 C 97.796875 67.53125 95.160156 71.035156 93.660156 74.714844 C 92.132812 78.394531 91.335938 82.011719 90.371094 85.308594 C 89.453125 88.625 87.671875 91.40625 86.003906 93.964844 C 84.296875 96.542969 82.816406 98.925781 80.707031 100.597656 C 78.605469 102.296875 76.355469 103.457031 74.238281 104.109375 C 72.128906 104.8125 70.160156 105.015625 68.539062 105.007812 C 66.914062 105.027344 61.945312 103.476562 61.945312 103.476562 C 61.945312 103.476562 66.089844 107.054688 67.769531 107.269531 C 69.4375 107.464844 78.707031 112.40625 89.40625 97.664062 C 92.367188 93.398438 92.6875 89.855469 93.925781 86.464844 C 95.171875 83.066406 96.070312 79.554688 97.570312 76.441406 C 99.03125 73.332031 101.066406 70.625 103.824219 68.585938 C 106.578125 66.570312 109.824219 65.054688 113.1875 63.925781 C 114.03125 63.644531 114.886719 63.402344 115.738281 63.140625 C 116.3125 62.992188 116.882812 62.84375 117.453125 62.691406 C 119.347656 62.28125 121.214844 61.871094 123.109375 61.460938 C 123.210938 61.441406 123.3125 61.421875 123.417969 61.402344 C 126.792969 60.84375 130.089844 60.601562 133.222656 60.589844 C 136.355469 60.601562 139.308594 60.945312 141.996094 61.460938 C 147.386719 62.523438 151.632812 64.496094 154.429688 66.175781 C 157.230469 67.859375 158.601562 69.203125 158.601562 69.203125 C 158.601562 69.203125 158.335938 68.8125 157.757812 68.128906 " fill-opacity="1" fill-rule="nonzero"/></g><path fill="#231f20" d="M 102.847656 126.539062 C 102.203125 126.707031 101.441406 126.773438 100.644531 126.941406 C 100.25 127.015625 99.839844 127.089844 99.417969 127.175781 C 98.984375 127.210938 98.535156 127.25 98.085938 127.285156 C 97.625 127.332031 97.167969 127.371094 96.699219 127.417969 C 96.21875 127.398438 95.742188 127.40625 95.253906 127.398438 C 94.28125 127.464844 93.296875 127.238281 92.300781 127.144531 C 91.796875 127.128906 91.328125 126.914062 90.839844 126.820312 C 90.351562 126.6875 89.847656 126.613281 89.386719 126.398438 L 87.980469 125.867188 C 87.53125 125.632812 87.089844 125.398438 86.648438 125.175781 C 86.191406 124.96875 85.804688 124.652344 85.382812 124.398438 C 84.960938 124.136719 84.558594 123.867188 84.203125 123.550781 C 83.441406 122.953125 82.757812 122.308594 82.121094 121.671875 C 81.792969 121.363281 81.550781 121 81.257812 120.691406 C 80.957031 120.382812 80.695312 120.054688 80.472656 119.730469 C 79.984375 119.09375 79.582031 118.488281 79.234375 117.925781 C 78.867188 117.367188 78.660156 116.863281 78.410156 116.441406 C 78.003906 115.542969 77.789062 115.019531 77.789062 115.019531 C 77.789062 115.019531 77.789062 115.160156 77.789062 115.421875 C 77.800781 115.683594 77.753906 116.078125 77.816406 116.570312 C 77.910156 117.046875 77.941406 117.710938 78.164062 118.367188 C 78.269531 118.710938 78.371094 119.074219 78.484375 119.449219 C 78.613281 119.832031 78.800781 120.207031 78.972656 120.605469 C 79.300781 121.429688 79.804688 122.234375 80.359375 123.082031 C 80.660156 123.492188 80.976562 123.914062 81.296875 124.335938 C 81.613281 124.773438 82.035156 125.128906 82.421875 125.53125 C 82.804688 125.949219 83.246094 126.304688 83.707031 126.660156 C 84.164062 127.015625 84.597656 127.425781 85.128906 127.695312 C 85.644531 127.988281 86.171875 128.285156 86.695312 128.585938 L 88.382812 129.257812 C 88.945312 129.507812 89.546875 129.601562 90.136719 129.742188 C 90.726562 129.863281 91.308594 130.050781 91.898438 130.058594 C 93.082031 130.152344 94.242188 130.21875 95.347656 130.070312 C 95.910156 130.011719 96.453125 129.984375 96.980469 129.902344 C 97.496094 129.769531 97.992188 129.640625 98.480469 129.519531 C 98.96875 129.386719 99.4375 129.265625 99.894531 129.144531 C 100.328125 128.957031 100.738281 128.78125 101.140625 128.613281 C 101.929688 128.265625 102.671875 127.976562 103.261719 127.621094 C 103.871094 127.265625 104.375 126.929688 104.789062 126.660156 C 105.613281 126.109375 106.0625 125.78125 106.0625 125.78125 C 106.0625 125.78125 105.492188 125.886719 104.546875 126.109375 C 104.066406 126.222656 103.484375 126.351562 102.847656 126.539062 " fill-opacity="1" fill-rule="nonzero"/><path fill="#231f20" d="M 103.710938 47.851562 C 104.21875 47.859375 104.65625 47.867188 105.023438 47.867188 C 105.765625 47.878906 106.195312 47.859375 106.195312 47.859375 C 106.195312 47.859375 105.78125 47.746094 105.070312 47.578125 C 104.703125 47.496094 104.265625 47.402344 103.757812 47.289062 C 103.25 47.148438 102.660156 47.113281 102.023438 47.046875 C 101.386719 47.007812 100.691406 46.867188 99.953125 46.925781 C 99.21875 46.953125 98.433594 46.945312 97.625 47.027344 C 96.828125 47.160156 95.996094 47.234375 95.160156 47.429688 C 94.347656 47.671875 93.492188 47.832031 92.675781 48.148438 C 91.878906 48.476562 91.066406 48.765625 90.304688 49.175781 C 89.535156 49.53125 88.832031 49.988281 88.148438 50.429688 C 87.457031 50.847656 86.863281 51.371094 86.285156 51.820312 C 85.730469 52.304688 85.207031 52.761719 84.773438 53.25 C 83.863281 54.15625 83.265625 55.050781 82.84375 55.660156 C 82.429688 56.277344 82.253906 56.660156 82.253906 56.660156 C 82.253906 56.660156 82.542969 56.351562 83.066406 55.847656 C 83.59375 55.332031 84.371094 54.640625 85.355469 53.882812 C 86.332031 53.128906 87.519531 52.316406 88.851562 51.558594 C 89.519531 51.175781 90.222656 50.820312 90.953125 50.492188 C 91.664062 50.121094 92.433594 49.867188 93.191406 49.578125 C 93.941406 49.269531 94.75 49.101562 95.507812 48.847656 C 96.296875 48.679688 97.0625 48.511719 97.8125 48.355469 C 98.574219 48.25 99.3125 48.148438 100.007812 48.054688 C 100.710938 47.941406 101.386719 47.980469 102.003906 47.914062 C 102.625 47.898438 103.195312 47.820312 103.710938 47.851562 " fill-opacity="1" fill-rule="nonzero"/><path fill="#231f20" d="M 98.515625 55.386719 C 98.949219 55.292969 99.324219 55.210938 99.632812 55.144531 C 100.261719 55.003906 100.617188 54.902344 100.617188 54.902344 C 100.617188 54.902344 100.25 54.863281 99.613281 54.847656 C 99.285156 54.847656 98.890625 54.835938 98.441406 54.828125 C 97.984375 54.800781 97.484375 54.882812 96.933594 54.949219 C 96.378906 55.023438 95.761719 55.042969 95.152344 55.238281 C 94.535156 55.40625 93.859375 55.527344 93.203125 55.78125 C 92.554688 56.0625 91.84375 56.257812 91.195312 56.621094 C 90.550781 56.984375 89.855469 57.292969 89.246094 57.742188 C 88.628906 58.164062 88.019531 58.609375 87.457031 59.105469 C 86.875 59.554688 86.394531 60.113281 85.898438 60.609375 C 84.960938 61.65625 84.191406 62.722656 83.660156 63.691406 C 83.085938 64.65625 82.757812 65.53125 82.523438 66.121094 C 82.308594 66.726562 82.234375 67.09375 82.234375 67.09375 C 82.234375 67.09375 82.429688 66.785156 82.785156 66.261719 C 83.132812 65.730469 83.6875 65.007812 84.371094 64.1875 C 85.046875 63.355469 85.898438 62.449219 86.855469 61.542969 C 87.839844 60.664062 88.898438 59.742188 90.089844 59.003906 C 90.644531 58.574219 91.28125 58.285156 91.871094 57.917969 C 92.472656 57.582031 93.097656 57.320312 93.691406 57.023438 C 94.289062 56.75 94.898438 56.554688 95.460938 56.320312 C 96.023438 56.078125 96.59375 55.96875 97.101562 55.800781 C 97.625 55.667969 98.085938 55.460938 98.515625 55.386719 " fill-opacity="1" fill-rule="nonzero"/><path fill="#231f20" d="M 93.792969 64.515625 C 93.324219 64.597656 92.800781 64.625 92.273438 64.804688 C 91.75 64.960938 91.175781 65.09375 90.613281 65.316406 C 90.070312 65.558594 89.480469 65.773438 88.917969 66.082031 C 88.382812 66.429688 87.792969 66.710938 87.285156 67.109375 C 86.769531 67.511719 86.253906 67.894531 85.804688 68.34375 C 85.316406 68.765625 84.925781 69.25 84.539062 69.71875 C 84.136719 70.164062 83.835938 70.671875 83.527344 71.128906 C 83.246094 71.605469 82.984375 72.042969 82.785156 72.492188 C 81.960938 74.21875 81.859375 75.5 81.859375 75.5 C 81.859375 75.5 82.449219 74.386719 83.535156 72.929688 C 84.082031 72.203125 84.753906 71.390625 85.535156 70.59375 C 86.320312 69.800781 87.210938 69.015625 88.175781 68.335938 C 89.125 67.625 90.164062 67.0625 91.160156 66.542969 C 91.664062 66.308594 92.160156 66.082031 92.628906 65.878906 C 93.097656 65.652344 93.578125 65.53125 94.007812 65.363281 C 94.441406 65.214844 94.824219 65.039062 95.191406 64.953125 C 95.554688 64.839844 95.863281 64.746094 96.128906 64.671875 C 96.652344 64.503906 96.953125 64.402344 96.953125 64.402344 C 96.953125 64.402344 96.632812 64.394531 96.089844 64.375 C 95.535156 64.382812 94.730469 64.335938 93.792969 64.515625 " fill-opacity="1" fill-rule="nonzero"/><g fill="#211a1d" fill-opacity="1"><g transform="translate(98.269808, 91.607671)"><g><path d="M 2.667969 0 C 2.851562 0 2.945312 -0.09375 2.945312 -0.277344 L 2.945312 -3.386719 L 4.980469 -3.386719 C 7.371094 -3.386719 8.660156 -4.660156 8.660156 -6.957031 C 8.660156 -9.058594 7.578125 -10.445312 4.699219 -10.445312 L 1.3125 -10.445312 C 1.128906 -10.445312 1.035156 -10.351562 1.035156 -10.167969 L 1.035156 -0.277344 C 1.035156 -0.09375 1.128906 0 1.3125 0 Z M 2.945312 -8.753906 L 4.453125 -8.753906 C 5.203125 -8.753906 6.761719 -8.738281 6.761719 -6.945312 C 6.761719 -5.09375 5.121094 -5.074219 4.453125 -5.074219 L 2.945312 -5.074219 Z M 2.945312 -8.753906 "/></g></g></g><g fill="#211a1d" fill-opacity="1"><g transform="translate(108.837784, 91.607671)"><g><path d="M 6.917969 -3.761719 C 8.058594 -4.296875 8.660156 -5.386719 8.660156 -6.957031 C 8.660156 -9.058594 7.578125 -10.445312 4.699219 -10.445312 L 1.3125 -10.445312 C 1.128906 -10.445312 1.035156 -10.351562 1.035156 -10.167969 L 1.035156 -0.277344 C 1.035156 -0.09375 1.128906 0 1.3125 0 L 2.667969 0 C 2.851562 0 2.945312 -0.09375 2.945312 -0.277344 L 2.945312 -3.386719 L 5.039062 -3.386719 L 6.636719 -0.210938 C 6.707031 -0.0664062 6.800781 0 6.957031 0 L 8.515625 0 C 8.726562 0 8.816406 -0.136719 8.71875 -0.332031 Z M 2.945312 -8.753906 L 4.453125 -8.753906 C 5.203125 -8.753906 6.761719 -8.738281 6.761719 -6.945312 C 6.761719 -5.09375 5.121094 -5.074219 4.453125 -5.074219 L 2.945312 -5.074219 Z M 2.945312 -8.753906 "/></g></g></g><g fill="#211a1d" fill-opacity="1"><g transform="translate(119.705005, 91.607671)"><g><path d="M 6.121094 0.246094 C 9.304688 0.246094 11.65625 -1.957031 11.65625 -5.222656 C 11.65625 -8.480469 9.304688 -10.691406 6.121094 -10.691406 C 2.945312 -10.691406 0.597656 -8.480469 0.597656 -5.222656 C 0.597656 -1.957031 2.945312 0.246094 6.121094 0.246094 Z M 6.121094 -1.53125 C 4.074219 -1.53125 2.515625 -3.007812 2.515625 -5.222656 C 2.515625 -7.449219 4.066406 -8.917969 6.121094 -8.917969 C 8.175781 -8.917969 9.746094 -7.449219 9.746094 -5.222656 C 9.746094 -3 8.175781 -1.53125 6.121094 -1.53125 Z M 6.121094 -1.53125 "/></g></g></g><g fill="#211a1d" fill-opacity="1"><g transform="translate(133.38104, 91.607671)"><g><path d="M 2.164062 0.246094 C 3.890625 0.246094 4.339844 -0.890625 4.339844 -2.734375 L 4.339844 -10.167969 C 4.339844 -10.351562 4.246094 -10.445312 4.0625 -10.445312 L 2.714844 -10.445312 C 2.535156 -10.445312 2.433594 -10.351562 2.433594 -10.167969 L 2.433594 -2.671875 C 2.433594 -1.890625 2.277344 -1.496094 1.625 -1.496094 C 1.457031 -1.496094 1.210938 -1.515625 0.828125 -1.632812 C 0.632812 -1.6875 0.515625 -1.617188 0.484375 -1.433594 L 0.257812 -0.332031 C 0.222656 -0.164062 0.292969 -0.046875 0.46875 0.0078125 C 1.183594 0.21875 1.722656 0.246094 2.164062 0.246094 Z M 2.164062 0.246094 "/></g></g></g><g fill="#211a1d" fill-opacity="1"><g transform="translate(140.133653, 91.607671)"><g><path d="M 6.945312 0 C 7.128906 0 7.222656 -0.09375 7.222656 -0.277344 L 7.222656 -1.414062 C 7.222656 -1.589844 7.128906 -1.695312 6.945312 -1.695312 L 2.945312 -1.695312 L 2.945312 -3.441406 L 6.398438 -3.441406 C 6.582031 -3.441406 6.679688 -3.535156 6.679688 -3.71875 L 6.679688 -4.78125 C 6.679688 -4.964844 6.582031 -5.058594 6.398438 -5.058594 L 2.945312 -5.058594 L 2.945312 -8.753906 L 6.945312 -8.753906 C 7.128906 -8.753906 7.222656 -8.855469 7.222656 -9.03125 L 7.222656 -10.167969 C 7.222656 -10.351562 7.128906 -10.445312 6.945312 -10.445312 L 1.3125 -10.445312 C 1.128906 -10.445312 1.035156 -10.351562 1.035156 -10.167969 L 1.035156 -0.277344 C 1.035156 -0.09375 1.128906 0 1.3125 0 Z M 6.945312 0 "/></g></g></g><g fill="#211a1d" fill-opacity="1"><g transform="translate(149.409439, 91.607671)"><g><path d="M 4.394531 0 C 4.578125 0 4.671875 -0.09375 4.671875 -0.277344 L 4.671875 -8.753906 L 6.9375 -8.753906 C 7.121094 -8.753906 7.214844 -8.855469 7.214844 -9.03125 L 7.214844 -10.167969 C 7.214844 -10.351562 7.121094 -10.445312 6.9375 -10.445312 L 0.488281 -10.445312 C 0.304688 -10.445312 0.210938 -10.351562 0.210938 -10.167969 L 0.210938 -9.03125 C 0.210938 -8.855469 0.304688 -8.753906 0.488281 -8.753906 L 2.746094 -8.753906 L 2.746094 -0.277344 C 2.746094 -0.09375 2.851562 0 3.027344 0 Z M 4.394531 0 "/></g></g></g><g fill="#211a1d" fill-opacity="1"><g transform="translate(94.423442, 110.986394)"><g><path d="M 6.058594 0 C 6.242188 0 6.339844 -0.09375 6.339844 -0.277344 L 6.339844 -1.414062 C 6.339844 -1.589844 6.242188 -1.695312 6.058594 -1.695312 L 2.945312 -1.695312 L 2.945312 -10.167969 C 2.945312 -10.351562 2.851562 -10.445312 2.667969 -10.445312 L 1.3125 -10.445312 C 1.128906 -10.445312 1.035156 -10.351562 1.035156 -10.167969 L 1.035156 -0.277344 C 1.035156 -0.09375 1.128906 0 1.3125 0 Z M 6.058594 0 "/></g></g></g><g fill="#211a1d" fill-opacity="1"><g transform="translate(102.393435, 110.986394)"><g><path d="M 2.667969 0 C 2.851562 0 2.945312 -0.09375 2.945312 -0.277344 L 2.945312 -10.167969 C 2.945312 -10.351562 2.851562 -10.445312 2.667969 -10.445312 L 1.3125 -10.445312 C 1.128906 -10.445312 1.035156 -10.351562 1.035156 -10.167969 L 1.035156 -0.277344 C 1.035156 -0.09375 1.128906 0 1.3125 0 Z M 2.667969 0 "/></g></g></g><g fill="#211a1d" fill-opacity="1"><g transform="translate(107.779047, 110.986394)"><g><path d="M 4.808594 0 C 7.632812 0 8.378906 -1.511719 8.378906 -2.972656 C 8.378906 -3.957031 7.902344 -4.929688 6.71875 -5.351562 C 7.582031 -5.855469 8.027344 -6.714844 8.027344 -7.734375 C 8.027344 -9.257812 7.160156 -10.445312 4.632812 -10.445312 L 1.3125 -10.445312 C 1.128906 -10.445312 1.035156 -10.351562 1.035156 -10.167969 L 1.035156 -0.277344 C 1.035156 -0.09375 1.128906 0 1.3125 0 Z M 2.945312 -8.753906 L 4.589844 -8.753906 C 5.929688 -8.753906 6.277344 -8.214844 6.277344 -7.460938 C 6.277344 -6.652344 5.9375 -6.09375 4.816406 -6.09375 L 2.945312 -6.09375 Z M 2.945312 -4.578125 L 4.84375 -4.578125 C 6.054688 -4.578125 6.460938 -3.980469 6.460938 -3.167969 C 6.460938 -2.402344 6.183594 -1.695312 4.753906 -1.695312 L 2.945312 -1.695312 Z M 2.945312 -4.578125 "/></g></g></g><g fill="#211a1d" fill-opacity="1"><g transform="translate(118.24501, 110.986394)"><g><path d="M 6.945312 0 C 7.128906 0 7.222656 -0.09375 7.222656 -0.277344 L 7.222656 -1.414062 C 7.222656 -1.589844 7.128906 -1.695312 6.945312 -1.695312 L 2.945312 -1.695312 L 2.945312 -3.441406 L 6.398438 -3.441406 C 6.582031 -3.441406 6.679688 -3.535156 6.679688 -3.71875 L 6.679688 -4.78125 C 6.679688 -4.964844 6.582031 -5.058594 6.398438 -5.058594 L 2.945312 -5.058594 L 2.945312 -8.753906 L 6.945312 -8.753906 C 7.128906 -8.753906 7.222656 -8.855469 7.222656 -9.03125 L 7.222656 -10.167969 C 7.222656 -10.351562 7.128906 -10.445312 6.945312 -10.445312 L 1.3125 -10.445312 C 1.128906 -10.445312 1.035156 -10.351562 1.035156 -10.167969 L 1.035156 -0.277344 C 1.035156 -0.09375 1.128906 0 1.3125 0 Z M 6.945312 0 "/></g></g></g><g fill="#211a1d" fill-opacity="1"><g transform="translate(127.520796, 110.986394)"><g><path d="M 6.917969 -3.761719 C 8.058594 -4.296875 8.660156 -5.386719 8.660156 -6.957031 C 8.660156 -9.058594 7.578125 -10.445312 4.699219 -10.445312 L 1.3125 -10.445312 C 1.128906 -10.445312 1.035156 -10.351562 1.035156 -10.167969 L 1.035156 -0.277344 C 1.035156 -0.09375 1.128906 0 1.3125 0 L 2.667969 0 C 2.851562 0 2.945312 -0.09375 2.945312 -0.277344 L 2.945312 -3.386719 L 5.039062 -3.386719 L 6.636719 -0.210938 C 6.707031 -0.0664062 6.800781 0 6.957031 0 L 8.515625 0 C 8.726562 0 8.816406 -0.136719 8.71875 -0.332031 Z M 2.945312 -8.753906 L 4.453125 -8.753906 C 5.203125 -8.753906 6.761719 -8.738281 6.761719 -6.945312 C 6.761719 -5.09375 5.121094 -5.074219 4.453125 -5.074219 L 2.945312 -5.074219 Z M 2.945312 -8.753906 "/></g></g></g><g fill="#211a1d" fill-opacity="1"><g transform="translate(138.388016, 110.986394)"><g><path d="M 4.394531 0 C 4.578125 0 4.671875 -0.09375 4.671875 -0.277344 L 4.671875 -8.753906 L 6.9375 -8.753906 C 7.121094 -8.753906 7.214844 -8.855469 7.214844 -9.03125 L 7.214844 -10.167969 C 7.214844 -10.351562 7.121094 -10.445312 6.9375 -10.445312 L 0.488281 -10.445312 C 0.304688 -10.445312 0.210938 -10.351562 0.210938 -10.167969 L 0.210938 -9.03125 C 0.210938 -8.855469 0.304688 -8.753906 0.488281 -8.753906 L 2.746094 -8.753906 L 2.746094 -0.277344 C 2.746094 -0.09375 2.851562 0 3.027344 0 Z M 4.394531 0 "/></g></g></g><g fill="#211a1d" fill-opacity="1"><g transform="translate(147.228538, 110.986394)"><g><path d="M 5.476562 0 C 5.652344 0 5.753906 -0.09375 5.753906 -0.277344 L 5.753906 -4.578125 L 9.421875 -10.113281 C 9.550781 -10.289062 9.46875 -10.445312 9.242188 -10.445312 L 7.578125 -10.445312 C 7.433594 -10.445312 7.3125 -10.386719 7.238281 -10.257812 L 4.800781 -6.351562 L 2.375 -10.257812 C 2.300781 -10.386719 2.191406 -10.445312 2.039062 -10.445312 L 0.375 -10.445312 C 0.15625 -10.445312 0.0664062 -10.289062 0.195312 -10.113281 L 3.835938 -4.570312 L 3.835938 -0.277344 C 3.835938 -0.09375 3.9375 0 4.113281 0 Z M 5.476562 0 "/></g></g></g></svg>